<mxfile host="app.diagrams.net" modified="2024-01-09T00:45:47.992Z" agent="Mozilla/5.0 (Windows NT 10.0; Win64; x64) AppleWebKit/537.36 (KHTML, like Gecko) Chrome/120.0.0.0 Safari/537.36 Edg/120.0.0.0" etag="8wWo_NcNq4bgPavekqs5" version="22.1.17" type="github" pages="4">
  <diagram name="PÃ¡gina-1" id="gULflxEIS_Tn6Cg3UiRG">
    <mxGraphModel dx="1612" dy="481" grid="1" gridSize="10" guides="1" tooltips="1" connect="1" arrows="1" fold="1" page="1" pageScale="1" pageWidth="827" pageHeight="1169" math="0" shadow="0">
      <root>
        <mxCell id="0" />
        <mxCell id="1" parent="0" />
        <mxCell id="RPfS-tQNrVsL4vn0U_FK-1" value="Tanque" style="swimlane;fontStyle=1;align=center;verticalAlign=top;childLayout=stackLayout;horizontal=1;startSize=26;horizontalStack=0;resizeParent=1;resizeParentMax=0;resizeLast=0;collapsible=1;marginBottom=0;whiteSpace=wrap;html=1;" parent="1" vertex="1">
          <mxGeometry x="-100" y="230" width="160" height="170" as="geometry" />
        </mxCell>
        <mxCell id="RPfS-tQNrVsL4vn0U_FK-2" value="-nombre: String;&lt;br&gt;-energia:float;&lt;br&gt;-posicion: Posicion;&lt;br&gt;-direccion: Direccion;" style="text;strokeColor=none;fillColor=none;align=left;verticalAlign=top;spacingLeft=4;spacingRight=4;overflow=hidden;rotatable=0;points=[[0,0.5],[1,0.5]];portConstraint=eastwest;whiteSpace=wrap;html=1;" parent="RPfS-tQNrVsL4vn0U_FK-1" vertex="1">
          <mxGeometry y="26" width="160" height="64" as="geometry" />
        </mxCell>
        <mxCell id="RPfS-tQNrVsL4vn0U_FK-3" value="" style="line;strokeWidth=1;fillColor=none;align=left;verticalAlign=middle;spacingTop=-1;spacingLeft=3;spacingRight=3;rotatable=0;labelPosition=right;points=[];portConstraint=eastwest;strokeColor=inherit;" parent="RPfS-tQNrVsL4vn0U_FK-1" vertex="1">
          <mxGeometry y="90" width="160" height="8" as="geometry" />
        </mxCell>
        <mxCell id="RPfS-tQNrVsL4vn0U_FK-4" value="+reducirEnergia(energia);&lt;br&gt;+deshabilitar(vida);&lt;br&gt;+setNombre(String);&lt;br&gt;+getNombre():String;" style="text;strokeColor=none;fillColor=none;align=left;verticalAlign=top;spacingLeft=4;spacingRight=4;overflow=hidden;rotatable=0;points=[[0,0.5],[1,0.5]];portConstraint=eastwest;whiteSpace=wrap;html=1;" parent="RPfS-tQNrVsL4vn0U_FK-1" vertex="1">
          <mxGeometry y="98" width="160" height="72" as="geometry" />
        </mxCell>
        <mxCell id="RPfS-tQNrVsL4vn0U_FK-5" value="Radar" style="swimlane;fontStyle=1;align=center;verticalAlign=top;childLayout=stackLayout;horizontal=1;startSize=26;horizontalStack=0;resizeParent=1;resizeParentMax=0;resizeLast=0;collapsible=1;marginBottom=0;whiteSpace=wrap;html=1;" parent="1" vertex="1">
          <mxGeometry x="-460" y="620" width="275" height="70" as="geometry" />
        </mxCell>
        <mxCell id="RPfS-tQNrVsL4vn0U_FK-6" value="+ field: type" style="text;strokeColor=none;fillColor=none;align=left;verticalAlign=top;spacingLeft=4;spacingRight=4;overflow=hidden;rotatable=0;points=[[0,0.5],[1,0.5]];portConstraint=eastwest;whiteSpace=wrap;html=1;" parent="RPfS-tQNrVsL4vn0U_FK-5" vertex="1">
          <mxGeometry y="26" width="275" height="4" as="geometry" />
        </mxCell>
        <mxCell id="RPfS-tQNrVsL4vn0U_FK-7" value="" style="line;strokeWidth=1;fillColor=none;align=left;verticalAlign=middle;spacingTop=-1;spacingLeft=3;spacingRight=3;rotatable=0;labelPosition=right;points=[];portConstraint=eastwest;strokeColor=inherit;" parent="RPfS-tQNrVsL4vn0U_FK-5" vertex="1">
          <mxGeometry y="30" width="275" height="8" as="geometry" />
        </mxCell>
        <mxCell id="RPfS-tQNrVsL4vn0U_FK-8" value="+detectarAlEnemigo(Direccion,Posicion):boolean;" style="text;strokeColor=none;fillColor=none;align=left;verticalAlign=top;spacingLeft=4;spacingRight=4;overflow=hidden;rotatable=0;points=[[0,0.5],[1,0.5]];portConstraint=eastwest;whiteSpace=wrap;html=1;" parent="RPfS-tQNrVsL4vn0U_FK-5" vertex="1">
          <mxGeometry y="38" width="275" height="32" as="geometry" />
        </mxCell>
        <mxCell id="RPfS-tQNrVsL4vn0U_FK-9" value="Torreta" style="swimlane;fontStyle=1;align=center;verticalAlign=top;childLayout=stackLayout;horizontal=1;startSize=26;horizontalStack=0;resizeParent=1;resizeParentMax=0;resizeLast=0;collapsible=1;marginBottom=0;whiteSpace=wrap;html=1;" parent="1" vertex="1">
          <mxGeometry x="-240" y="420" width="185" height="100" as="geometry" />
        </mxCell>
        <mxCell id="RPfS-tQNrVsL4vn0U_FK-10" value="-disparos:int;" style="text;strokeColor=none;fillColor=none;align=left;verticalAlign=top;spacingLeft=4;spacingRight=4;overflow=hidden;rotatable=0;points=[[0,0.5],[1,0.5]];portConstraint=eastwest;whiteSpace=wrap;html=1;" parent="RPfS-tQNrVsL4vn0U_FK-9" vertex="1">
          <mxGeometry y="26" width="185" height="26" as="geometry" />
        </mxCell>
        <mxCell id="RPfS-tQNrVsL4vn0U_FK-11" value="" style="line;strokeWidth=1;fillColor=none;align=left;verticalAlign=middle;spacingTop=-1;spacingLeft=3;spacingRight=3;rotatable=0;labelPosition=right;points=[];portConstraint=eastwest;strokeColor=inherit;" parent="RPfS-tQNrVsL4vn0U_FK-9" vertex="1">
          <mxGeometry y="52" width="185" height="8" as="geometry" />
        </mxCell>
        <mxCell id="RPfS-tQNrVsL4vn0U_FK-12" value="+setDisparos(int);&lt;br&gt;+calentarse(disparos);" style="text;strokeColor=none;fillColor=none;align=left;verticalAlign=top;spacingLeft=4;spacingRight=4;overflow=hidden;rotatable=0;points=[[0,0.5],[1,0.5]];portConstraint=eastwest;whiteSpace=wrap;html=1;" parent="RPfS-tQNrVsL4vn0U_FK-9" vertex="1">
          <mxGeometry y="60" width="185" height="40" as="geometry" />
        </mxCell>
        <mxCell id="RPfS-tQNrVsL4vn0U_FK-13" value="" style="endArrow=open;html=1;endSize=12;startArrow=diamondThin;startSize=14;startFill=1;edgeStyle=orthogonalEdgeStyle;align=left;verticalAlign=bottom;rounded=0;exitX=0;exitY=0.5;exitDx=0;exitDy=0;entryX=0.25;entryY=0;entryDx=0;entryDy=0;" parent="1" source="RPfS-tQNrVsL4vn0U_FK-2" target="RPfS-tQNrVsL4vn0U_FK-9" edge="1">
          <mxGeometry x="-0.9115" y="-18" relative="1" as="geometry">
            <mxPoint x="40" y="650" as="sourcePoint" />
            <mxPoint x="200" y="650" as="targetPoint" />
            <mxPoint x="-1" as="offset" />
          </mxGeometry>
        </mxCell>
        <mxCell id="RPfS-tQNrVsL4vn0U_FK-14" value="Tablero" style="swimlane;fontStyle=1;align=center;verticalAlign=top;childLayout=stackLayout;horizontal=1;startSize=26;horizontalStack=0;resizeParent=1;resizeParentMax=0;resizeLast=0;collapsible=1;marginBottom=0;whiteSpace=wrap;html=1;" parent="1" vertex="1">
          <mxGeometry x="70" y="130" width="210" height="60" as="geometry" />
        </mxCell>
        <mxCell id="RPfS-tQNrVsL4vn0U_FK-15" value="-posicion: array[600][800]Posicion;" style="text;strokeColor=none;fillColor=none;align=left;verticalAlign=top;spacingLeft=4;spacingRight=4;overflow=hidden;rotatable=0;points=[[0,0.5],[1,0.5]];portConstraint=eastwest;whiteSpace=wrap;html=1;" parent="RPfS-tQNrVsL4vn0U_FK-14" vertex="1">
          <mxGeometry y="26" width="210" height="26" as="geometry" />
        </mxCell>
        <mxCell id="RPfS-tQNrVsL4vn0U_FK-16" value="" style="line;strokeWidth=1;fillColor=none;align=left;verticalAlign=middle;spacingTop=-1;spacingLeft=3;spacingRight=3;rotatable=0;labelPosition=right;points=[];portConstraint=eastwest;strokeColor=inherit;" parent="RPfS-tQNrVsL4vn0U_FK-14" vertex="1">
          <mxGeometry y="52" width="210" height="8" as="geometry" />
        </mxCell>
        <mxCell id="RPfS-tQNrVsL4vn0U_FK-17" value="+ method(type): type" style="text;strokeColor=none;fillColor=none;align=left;verticalAlign=top;spacingLeft=4;spacingRight=4;overflow=hidden;rotatable=0;points=[[0,0.5],[1,0.5]];portConstraint=eastwest;whiteSpace=wrap;html=1;" parent="RPfS-tQNrVsL4vn0U_FK-14" vertex="1">
          <mxGeometry y="60" width="210" as="geometry" />
        </mxCell>
        <mxCell id="RPfS-tQNrVsL4vn0U_FK-18" value="Posicion" style="swimlane;fontStyle=1;align=center;verticalAlign=top;childLayout=stackLayout;horizontal=1;startSize=26;horizontalStack=0;resizeParent=1;resizeParentMax=0;resizeLast=0;collapsible=1;marginBottom=0;whiteSpace=wrap;html=1;" parent="1" vertex="1">
          <mxGeometry x="305" y="550" width="160" height="150" as="geometry" />
        </mxCell>
        <mxCell id="RPfS-tQNrVsL4vn0U_FK-19" value="-posX:int;&lt;br&gt;-posY:int;" style="text;strokeColor=none;fillColor=none;align=left;verticalAlign=top;spacingLeft=4;spacingRight=4;overflow=hidden;rotatable=0;points=[[0,0.5],[1,0.5]];portConstraint=eastwest;whiteSpace=wrap;html=1;" parent="RPfS-tQNrVsL4vn0U_FK-18" vertex="1">
          <mxGeometry y="26" width="160" height="34" as="geometry" />
        </mxCell>
        <mxCell id="RPfS-tQNrVsL4vn0U_FK-20" value="" style="line;strokeWidth=1;fillColor=none;align=left;verticalAlign=middle;spacingTop=-1;spacingLeft=3;spacingRight=3;rotatable=0;labelPosition=right;points=[];portConstraint=eastwest;strokeColor=inherit;" parent="RPfS-tQNrVsL4vn0U_FK-18" vertex="1">
          <mxGeometry y="60" width="160" height="8" as="geometry" />
        </mxCell>
        <mxCell id="RPfS-tQNrVsL4vn0U_FK-21" value="+setPosX(int);&lt;br&gt;+setPosY(int);&lt;br&gt;+getPosX():int;&lt;br&gt;+getPosY():int;" style="text;strokeColor=none;fillColor=none;align=left;verticalAlign=top;spacingLeft=4;spacingRight=4;overflow=hidden;rotatable=0;points=[[0,0.5],[1,0.5]];portConstraint=eastwest;whiteSpace=wrap;html=1;" parent="RPfS-tQNrVsL4vn0U_FK-18" vertex="1">
          <mxGeometry y="68" width="160" height="82" as="geometry" />
        </mxCell>
        <mxCell id="RPfS-tQNrVsL4vn0U_FK-22" value="" style="endArrow=open;html=1;endSize=12;startArrow=diamondThin;startSize=14;startFill=1;edgeStyle=orthogonalEdgeStyle;align=left;verticalAlign=bottom;rounded=0;exitX=1;exitY=0.5;exitDx=0;exitDy=0;entryX=0.5;entryY=0;entryDx=0;entryDy=0;" parent="1" source="RPfS-tQNrVsL4vn0U_FK-15" target="RPfS-tQNrVsL4vn0U_FK-18" edge="1">
          <mxGeometry x="-0.8452" relative="1" as="geometry">
            <mxPoint x="326.03999999999996" y="350.99199999999996" as="sourcePoint" />
            <mxPoint x="295" y="510" as="targetPoint" />
            <Array as="points">
              <mxPoint x="300" y="169" />
              <mxPoint x="300" y="179" />
              <mxPoint x="385" y="179" />
            </Array>
            <mxPoint as="offset" />
          </mxGeometry>
        </mxCell>
        <mxCell id="RPfS-tQNrVsL4vn0U_FK-23" value="" style="endArrow=open;html=1;endSize=12;startArrow=diamondThin;startSize=14;startFill=0;edgeStyle=orthogonalEdgeStyle;align=left;verticalAlign=bottom;rounded=0;entryX=0.5;entryY=0;entryDx=0;entryDy=0;exitX=0;exitY=0.5;exitDx=0;exitDy=0;" parent="1" source="RPfS-tQNrVsL4vn0U_FK-15" target="RPfS-tQNrVsL4vn0U_FK-1" edge="1">
          <mxGeometry x="-0.6045" relative="1" as="geometry">
            <mxPoint x="-250" y="200" as="sourcePoint" />
            <mxPoint x="-90" y="340" as="targetPoint" />
            <mxPoint as="offset" />
          </mxGeometry>
        </mxCell>
        <mxCell id="RPfS-tQNrVsL4vn0U_FK-24" value="" style="endArrow=open;html=1;endSize=12;startArrow=diamondThin;startSize=14;startFill=0;edgeStyle=orthogonalEdgeStyle;align=left;verticalAlign=bottom;rounded=0;entryX=0.25;entryY=0;entryDx=0;entryDy=0;" parent="1" source="RPfS-tQNrVsL4vn0U_FK-17" target="RPfS-tQNrVsL4vn0U_FK-27" edge="1">
          <mxGeometry x="-0.6495" y="10" relative="1" as="geometry">
            <mxPoint x="105" y="270" as="sourcePoint" />
            <mxPoint x="135" y="390" as="targetPoint" />
            <Array as="points">
              <mxPoint x="135" y="250" />
              <mxPoint x="215" y="250" />
            </Array>
            <mxPoint as="offset" />
          </mxGeometry>
        </mxCell>
        <mxCell id="RPfS-tQNrVsL4vn0U_FK-25" value="" style="endArrow=open;html=1;endSize=12;startArrow=diamondThin;startSize=14;startFill=1;edgeStyle=orthogonalEdgeStyle;align=left;verticalAlign=bottom;rounded=0;exitX=0;exitY=0.5;exitDx=0;exitDy=0;" parent="1" source="RPfS-tQNrVsL4vn0U_FK-10" edge="1">
          <mxGeometry x="1" y="13" relative="1" as="geometry">
            <mxPoint x="-310.05" y="464.96000000000004" as="sourcePoint" />
            <mxPoint x="-350" y="620" as="targetPoint" />
            <Array as="points">
              <mxPoint x="-255" y="459" />
              <mxPoint x="-255" y="460" />
              <mxPoint x="-350" y="460" />
              <mxPoint x="-350" y="620" />
            </Array>
            <mxPoint x="8" y="3" as="offset" />
          </mxGeometry>
        </mxCell>
        <mxCell id="RPfS-tQNrVsL4vn0U_FK-26" value="" style="endArrow=open;html=1;endSize=12;startArrow=diamondThin;startSize=14;startFill=1;edgeStyle=orthogonalEdgeStyle;align=left;verticalAlign=bottom;rounded=0;" parent="1" edge="1">
          <mxGeometry x="-0.0979" relative="1" as="geometry">
            <mxPoint x="175" y="350" as="sourcePoint" />
            <mxPoint x="60" y="354" as="targetPoint" />
            <Array as="points">
              <mxPoint x="100" y="350" />
              <mxPoint x="100" y="354" />
              <mxPoint x="60" y="354" />
            </Array>
            <mxPoint as="offset" />
          </mxGeometry>
        </mxCell>
        <mxCell id="RPfS-tQNrVsL4vn0U_FK-27" value="Escuadron" style="swimlane;fontStyle=1;align=center;verticalAlign=top;childLayout=stackLayout;horizontal=1;startSize=26;horizontalStack=0;resizeParent=1;resizeParentMax=0;resizeLast=0;collapsible=1;marginBottom=0;whiteSpace=wrap;html=1;" parent="1" vertex="1">
          <mxGeometry x="175" y="280" width="160" height="78" as="geometry" />
        </mxCell>
        <mxCell id="RPfS-tQNrVsL4vn0U_FK-28" value="-direccion:Direccion;&lt;br&gt;-tanque:array[]Tanque;" style="text;strokeColor=none;fillColor=none;align=left;verticalAlign=top;spacingLeft=4;spacingRight=4;overflow=hidden;rotatable=0;points=[[0,0.5],[1,0.5]];portConstraint=eastwest;whiteSpace=wrap;html=1;" parent="RPfS-tQNrVsL4vn0U_FK-27" vertex="1">
          <mxGeometry y="26" width="160" height="44" as="geometry" />
        </mxCell>
        <mxCell id="RPfS-tQNrVsL4vn0U_FK-29" value="" style="line;strokeWidth=1;fillColor=none;align=left;verticalAlign=middle;spacingTop=-1;spacingLeft=3;spacingRight=3;rotatable=0;labelPosition=right;points=[];portConstraint=eastwest;strokeColor=inherit;" parent="RPfS-tQNrVsL4vn0U_FK-27" vertex="1">
          <mxGeometry y="70" width="160" height="8" as="geometry" />
        </mxCell>
        <mxCell id="RPfS-tQNrVsL4vn0U_FK-30" value="Direccion" style="swimlane;fontStyle=1;align=center;verticalAlign=top;childLayout=stackLayout;horizontal=1;startSize=26;horizontalStack=0;resizeParent=1;resizeParentMax=0;resizeLast=0;collapsible=1;marginBottom=0;whiteSpace=wrap;html=1;" parent="1" vertex="1">
          <mxGeometry x="50" y="510" width="160" height="100" as="geometry" />
        </mxCell>
        <mxCell id="RPfS-tQNrVsL4vn0U_FK-31" value="- angulo: int;" style="text;strokeColor=none;fillColor=none;align=left;verticalAlign=top;spacingLeft=4;spacingRight=4;overflow=hidden;rotatable=0;points=[[0,0.5],[1,0.5]];portConstraint=eastwest;whiteSpace=wrap;html=1;" parent="RPfS-tQNrVsL4vn0U_FK-30" vertex="1">
          <mxGeometry y="26" width="160" height="26" as="geometry" />
        </mxCell>
        <mxCell id="RPfS-tQNrVsL4vn0U_FK-32" value="" style="line;strokeWidth=1;fillColor=none;align=left;verticalAlign=middle;spacingTop=-1;spacingLeft=3;spacingRight=3;rotatable=0;labelPosition=right;points=[];portConstraint=eastwest;strokeColor=inherit;" parent="RPfS-tQNrVsL4vn0U_FK-30" vertex="1">
          <mxGeometry y="52" width="160" height="8" as="geometry" />
        </mxCell>
        <mxCell id="RPfS-tQNrVsL4vn0U_FK-33" value="+setAngulo(int);&lt;br&gt;+getAngulo():int;" style="text;strokeColor=none;fillColor=none;align=left;verticalAlign=top;spacingLeft=4;spacingRight=4;overflow=hidden;rotatable=0;points=[[0,0.5],[1,0.5]];portConstraint=eastwest;whiteSpace=wrap;html=1;" parent="RPfS-tQNrVsL4vn0U_FK-30" vertex="1">
          <mxGeometry y="60" width="160" height="40" as="geometry" />
        </mxCell>
        <mxCell id="RPfS-tQNrVsL4vn0U_FK-34" value="" style="endArrow=open;html=1;endSize=12;startArrow=diamondThin;startSize=14;startFill=0;edgeStyle=orthogonalEdgeStyle;align=left;verticalAlign=bottom;rounded=0;exitX=1;exitY=0.5;exitDx=0;exitDy=0;entryX=0.5;entryY=0;entryDx=0;entryDy=0;" parent="1" source="RPfS-tQNrVsL4vn0U_FK-10" target="RPfS-tQNrVsL4vn0U_FK-30" edge="1">
          <mxGeometry x="0.4831" y="-1" relative="1" as="geometry">
            <mxPoint x="70" y="430" as="sourcePoint" />
            <mxPoint x="230" y="430" as="targetPoint" />
            <mxPoint as="offset" />
          </mxGeometry>
        </mxCell>
        <mxCell id="RPfS-tQNrVsL4vn0U_FK-35" value="Tanque" style="swimlane;fontStyle=1;align=center;verticalAlign=top;childLayout=stackLayout;horizontal=1;startSize=26;horizontalStack=0;resizeParent=1;resizeParentMax=0;resizeLast=0;collapsible=1;marginBottom=0;whiteSpace=wrap;html=1;" parent="1" vertex="1">
          <mxGeometry x="975" y="250" width="160" height="170" as="geometry" />
        </mxCell>
        <mxCell id="RPfS-tQNrVsL4vn0U_FK-36" value="-nombre: String;&lt;br&gt;-energia:float;&lt;br&gt;-posicion: Posicion;&lt;br&gt;-direccion: Direccion;" style="text;strokeColor=none;fillColor=none;align=left;verticalAlign=top;spacingLeft=4;spacingRight=4;overflow=hidden;rotatable=0;points=[[0,0.5],[1,0.5]];portConstraint=eastwest;whiteSpace=wrap;html=1;" parent="RPfS-tQNrVsL4vn0U_FK-35" vertex="1">
          <mxGeometry y="26" width="160" height="64" as="geometry" />
        </mxCell>
        <mxCell id="RPfS-tQNrVsL4vn0U_FK-37" value="" style="line;strokeWidth=1;fillColor=none;align=left;verticalAlign=middle;spacingTop=-1;spacingLeft=3;spacingRight=3;rotatable=0;labelPosition=right;points=[];portConstraint=eastwest;strokeColor=inherit;" parent="RPfS-tQNrVsL4vn0U_FK-35" vertex="1">
          <mxGeometry y="90" width="160" height="8" as="geometry" />
        </mxCell>
        <mxCell id="RPfS-tQNrVsL4vn0U_FK-38" value="+reducirEnergia(energia);&lt;br&gt;+deshabilitar(vida);&lt;br&gt;+setNombre(String);&lt;br&gt;+getNombre():String;" style="text;strokeColor=none;fillColor=none;align=left;verticalAlign=top;spacingLeft=4;spacingRight=4;overflow=hidden;rotatable=0;points=[[0,0.5],[1,0.5]];portConstraint=eastwest;whiteSpace=wrap;html=1;" parent="RPfS-tQNrVsL4vn0U_FK-35" vertex="1">
          <mxGeometry y="98" width="160" height="72" as="geometry" />
        </mxCell>
        <mxCell id="RPfS-tQNrVsL4vn0U_FK-39" value="Radar" style="swimlane;fontStyle=1;align=center;verticalAlign=top;childLayout=stackLayout;horizontal=1;startSize=26;horizontalStack=0;resizeParent=1;resizeParentMax=0;resizeLast=0;collapsible=1;marginBottom=0;whiteSpace=wrap;html=1;" parent="1" vertex="1">
          <mxGeometry x="690" y="610" width="275" height="70" as="geometry" />
        </mxCell>
        <mxCell id="RPfS-tQNrVsL4vn0U_FK-40" value="+ field: type" style="text;strokeColor=none;fillColor=none;align=left;verticalAlign=top;spacingLeft=4;spacingRight=4;overflow=hidden;rotatable=0;points=[[0,0.5],[1,0.5]];portConstraint=eastwest;whiteSpace=wrap;html=1;" parent="RPfS-tQNrVsL4vn0U_FK-39" vertex="1">
          <mxGeometry y="26" width="275" height="4" as="geometry" />
        </mxCell>
        <mxCell id="RPfS-tQNrVsL4vn0U_FK-41" value="" style="line;strokeWidth=1;fillColor=none;align=left;verticalAlign=middle;spacingTop=-1;spacingLeft=3;spacingRight=3;rotatable=0;labelPosition=right;points=[];portConstraint=eastwest;strokeColor=inherit;" parent="RPfS-tQNrVsL4vn0U_FK-39" vertex="1">
          <mxGeometry y="30" width="275" height="8" as="geometry" />
        </mxCell>
        <mxCell id="RPfS-tQNrVsL4vn0U_FK-42" value="+detectarAlEnemigo(Direccion,Posicion):boolean;" style="text;strokeColor=none;fillColor=none;align=left;verticalAlign=top;spacingLeft=4;spacingRight=4;overflow=hidden;rotatable=0;points=[[0,0.5],[1,0.5]];portConstraint=eastwest;whiteSpace=wrap;html=1;" parent="RPfS-tQNrVsL4vn0U_FK-39" vertex="1">
          <mxGeometry y="38" width="275" height="32" as="geometry" />
        </mxCell>
        <mxCell id="RPfS-tQNrVsL4vn0U_FK-43" value="Torreta" style="swimlane;fontStyle=1;align=center;verticalAlign=top;childLayout=stackLayout;horizontal=1;startSize=26;horizontalStack=0;resizeParent=1;resizeParentMax=0;resizeLast=0;collapsible=1;marginBottom=0;whiteSpace=wrap;html=1;" parent="1" vertex="1">
          <mxGeometry x="835" y="440" width="185" height="100" as="geometry" />
        </mxCell>
        <mxCell id="RPfS-tQNrVsL4vn0U_FK-44" value="-disparos:int;" style="text;strokeColor=none;fillColor=none;align=left;verticalAlign=top;spacingLeft=4;spacingRight=4;overflow=hidden;rotatable=0;points=[[0,0.5],[1,0.5]];portConstraint=eastwest;whiteSpace=wrap;html=1;" parent="RPfS-tQNrVsL4vn0U_FK-43" vertex="1">
          <mxGeometry y="26" width="185" height="26" as="geometry" />
        </mxCell>
        <mxCell id="RPfS-tQNrVsL4vn0U_FK-45" value="" style="line;strokeWidth=1;fillColor=none;align=left;verticalAlign=middle;spacingTop=-1;spacingLeft=3;spacingRight=3;rotatable=0;labelPosition=right;points=[];portConstraint=eastwest;strokeColor=inherit;" parent="RPfS-tQNrVsL4vn0U_FK-43" vertex="1">
          <mxGeometry y="52" width="185" height="8" as="geometry" />
        </mxCell>
        <mxCell id="RPfS-tQNrVsL4vn0U_FK-46" value="+setDisparos(int);&lt;br&gt;+calentarse(disparos);" style="text;strokeColor=none;fillColor=none;align=left;verticalAlign=top;spacingLeft=4;spacingRight=4;overflow=hidden;rotatable=0;points=[[0,0.5],[1,0.5]];portConstraint=eastwest;whiteSpace=wrap;html=1;" parent="RPfS-tQNrVsL4vn0U_FK-43" vertex="1">
          <mxGeometry y="60" width="185" height="40" as="geometry" />
        </mxCell>
        <mxCell id="RPfS-tQNrVsL4vn0U_FK-47" value="1" style="endArrow=open;html=1;endSize=12;startArrow=diamondThin;startSize=14;startFill=1;edgeStyle=orthogonalEdgeStyle;align=left;verticalAlign=bottom;rounded=0;exitX=0.25;exitY=0;exitDx=0;exitDy=0;entryX=0;entryY=0.5;entryDx=0;entryDy=0;" parent="1" source="RPfS-tQNrVsL4vn0U_FK-43" target="RPfS-tQNrVsL4vn0U_FK-36" edge="1">
          <mxGeometry x="-0.7778" y="-5" relative="1" as="geometry">
            <mxPoint x="1275" y="670" as="sourcePoint" />
            <mxPoint x="1115" y="670" as="targetPoint" />
            <mxPoint as="offset" />
          </mxGeometry>
        </mxCell>
        <mxCell id="RPfS-tQNrVsL4vn0U_FK-48" value="Tablero" style="swimlane;fontStyle=1;align=center;verticalAlign=top;childLayout=stackLayout;horizontal=1;startSize=26;horizontalStack=0;resizeParent=1;resizeParentMax=0;resizeLast=0;collapsible=1;marginBottom=0;whiteSpace=wrap;html=1;" parent="1" vertex="1">
          <mxGeometry x="1155" y="160" width="160" height="60" as="geometry" />
        </mxCell>
        <mxCell id="RPfS-tQNrVsL4vn0U_FK-49" value="-[800][600]Posicion p;&amp;nbsp;" style="text;strokeColor=none;fillColor=none;align=left;verticalAlign=top;spacingLeft=4;spacingRight=4;overflow=hidden;rotatable=0;points=[[0,0.5],[1,0.5]];portConstraint=eastwest;whiteSpace=wrap;html=1;" parent="RPfS-tQNrVsL4vn0U_FK-48" vertex="1">
          <mxGeometry y="26" width="160" height="26" as="geometry" />
        </mxCell>
        <mxCell id="RPfS-tQNrVsL4vn0U_FK-50" value="" style="line;strokeWidth=1;fillColor=none;align=left;verticalAlign=middle;spacingTop=-1;spacingLeft=3;spacingRight=3;rotatable=0;labelPosition=right;points=[];portConstraint=eastwest;strokeColor=inherit;" parent="RPfS-tQNrVsL4vn0U_FK-48" vertex="1">
          <mxGeometry y="52" width="160" height="8" as="geometry" />
        </mxCell>
        <mxCell id="RPfS-tQNrVsL4vn0U_FK-51" value="+ method(type): type" style="text;strokeColor=none;fillColor=none;align=left;verticalAlign=top;spacingLeft=4;spacingRight=4;overflow=hidden;rotatable=0;points=[[0,0.5],[1,0.5]];portConstraint=eastwest;whiteSpace=wrap;html=1;" parent="RPfS-tQNrVsL4vn0U_FK-48" vertex="1">
          <mxGeometry y="60" width="160" as="geometry" />
        </mxCell>
        <mxCell id="RPfS-tQNrVsL4vn0U_FK-52" value="Posicion" style="swimlane;fontStyle=1;align=center;verticalAlign=top;childLayout=stackLayout;horizontal=1;startSize=26;horizontalStack=0;resizeParent=1;resizeParentMax=0;resizeLast=0;collapsible=1;marginBottom=0;whiteSpace=wrap;html=1;" parent="1" vertex="1">
          <mxGeometry x="1380" y="570" width="160" height="150" as="geometry" />
        </mxCell>
        <mxCell id="RPfS-tQNrVsL4vn0U_FK-53" value="-posX:int;&lt;br&gt;-posY:int;" style="text;strokeColor=none;fillColor=none;align=left;verticalAlign=top;spacingLeft=4;spacingRight=4;overflow=hidden;rotatable=0;points=[[0,0.5],[1,0.5]];portConstraint=eastwest;whiteSpace=wrap;html=1;" parent="RPfS-tQNrVsL4vn0U_FK-52" vertex="1">
          <mxGeometry y="26" width="160" height="34" as="geometry" />
        </mxCell>
        <mxCell id="RPfS-tQNrVsL4vn0U_FK-54" value="" style="line;strokeWidth=1;fillColor=none;align=left;verticalAlign=middle;spacingTop=-1;spacingLeft=3;spacingRight=3;rotatable=0;labelPosition=right;points=[];portConstraint=eastwest;strokeColor=inherit;" parent="RPfS-tQNrVsL4vn0U_FK-52" vertex="1">
          <mxGeometry y="60" width="160" height="8" as="geometry" />
        </mxCell>
        <mxCell id="RPfS-tQNrVsL4vn0U_FK-55" value="+setPosX(int);&lt;br&gt;+setPosY(int);&lt;br&gt;+getPosX():int;&lt;br&gt;+getPosY():int;" style="text;strokeColor=none;fillColor=none;align=left;verticalAlign=top;spacingLeft=4;spacingRight=4;overflow=hidden;rotatable=0;points=[[0,0.5],[1,0.5]];portConstraint=eastwest;whiteSpace=wrap;html=1;" parent="RPfS-tQNrVsL4vn0U_FK-52" vertex="1">
          <mxGeometry y="68" width="160" height="82" as="geometry" />
        </mxCell>
        <mxCell id="RPfS-tQNrVsL4vn0U_FK-56" value="800" style="endArrow=open;html=1;endSize=12;startArrow=diamondThin;startSize=14;startFill=1;edgeStyle=orthogonalEdgeStyle;align=left;verticalAlign=bottom;rounded=0;exitX=1;exitY=0.5;exitDx=0;exitDy=0;entryX=0.5;entryY=0;entryDx=0;entryDy=0;" parent="1" source="RPfS-tQNrVsL4vn0U_FK-49" target="RPfS-tQNrVsL4vn0U_FK-52" edge="1">
          <mxGeometry x="-1" y="3" relative="1" as="geometry">
            <mxPoint x="1401.04" y="370.99199999999996" as="sourcePoint" />
            <mxPoint x="1370" y="530" as="targetPoint" />
            <Array as="points">
              <mxPoint x="1460" y="199" />
            </Array>
          </mxGeometry>
        </mxCell>
        <mxCell id="RPfS-tQNrVsL4vn0U_FK-57" value="1" style="endArrow=open;html=1;endSize=12;startArrow=diamondThin;startSize=14;startFill=0;edgeStyle=orthogonalEdgeStyle;align=left;verticalAlign=bottom;rounded=0;entryX=0.5;entryY=0;entryDx=0;entryDy=0;exitX=0;exitY=0.5;exitDx=0;exitDy=0;" parent="1" source="RPfS-tQNrVsL4vn0U_FK-49" target="RPfS-tQNrVsL4vn0U_FK-35" edge="1">
          <mxGeometry x="-0.6045" relative="1" as="geometry">
            <mxPoint x="825" y="220" as="sourcePoint" />
            <mxPoint x="985" y="360" as="targetPoint" />
            <mxPoint as="offset" />
          </mxGeometry>
        </mxCell>
        <mxCell id="RPfS-tQNrVsL4vn0U_FK-58" value="1" style="endArrow=open;html=1;endSize=12;startArrow=diamondThin;startSize=14;startFill=0;edgeStyle=orthogonalEdgeStyle;align=left;verticalAlign=bottom;rounded=0;entryX=0.25;entryY=0;entryDx=0;entryDy=0;" parent="1" source="RPfS-tQNrVsL4vn0U_FK-51" edge="1">
          <mxGeometry x="-0.6495" y="10" relative="1" as="geometry">
            <mxPoint x="1180" y="290" as="sourcePoint" />
            <mxPoint x="1289.9999999999995" y="300" as="targetPoint" />
            <Array as="points">
              <mxPoint x="1210" y="260" />
              <mxPoint x="1290" y="260" />
            </Array>
            <mxPoint as="offset" />
          </mxGeometry>
        </mxCell>
        <mxCell id="RPfS-tQNrVsL4vn0U_FK-59" value="1" style="endArrow=open;html=1;endSize=12;startArrow=diamondThin;startSize=14;startFill=1;edgeStyle=orthogonalEdgeStyle;align=left;verticalAlign=bottom;rounded=0;exitX=0;exitY=0.5;exitDx=0;exitDy=0;entryX=0.5;entryY=0;entryDx=0;entryDy=0;" parent="1" source="RPfS-tQNrVsL4vn0U_FK-44" target="RPfS-tQNrVsL4vn0U_FK-39" edge="1">
          <mxGeometry x="-0.7511" y="-2" relative="1" as="geometry">
            <mxPoint x="764.95" y="484.96000000000004" as="sourcePoint" />
            <mxPoint x="724.9934782608698" y="584.96" as="targetPoint" />
            <Array as="points">
              <mxPoint x="820" y="479" />
              <mxPoint x="827" y="480" />
            </Array>
            <mxPoint as="offset" />
          </mxGeometry>
        </mxCell>
        <mxCell id="RPfS-tQNrVsL4vn0U_FK-60" value="1" style="endArrow=open;html=1;endSize=12;startArrow=diamondThin;startSize=14;startFill=0;edgeStyle=orthogonalEdgeStyle;align=left;verticalAlign=bottom;rounded=0;exitX=0.468;exitY=1.025;exitDx=0;exitDy=0;exitPerimeter=0;" parent="1" source="RPfS-tQNrVsL4vn0U_FK-38" edge="1">
          <mxGeometry x="-0.2297" relative="1" as="geometry">
            <mxPoint x="1050" y="420" as="sourcePoint" />
            <mxPoint x="1375" y="699" as="targetPoint" />
            <Array as="points">
              <mxPoint x="1050" y="699" />
            </Array>
            <mxPoint as="offset" />
          </mxGeometry>
        </mxCell>
        <mxCell id="RPfS-tQNrVsL4vn0U_FK-61" value="100" style="endArrow=open;html=1;endSize=12;startArrow=diamondThin;startSize=14;startFill=1;edgeStyle=orthogonalEdgeStyle;align=left;verticalAlign=bottom;rounded=0;" parent="1" edge="1">
          <mxGeometry x="-0.0959" relative="1" as="geometry">
            <mxPoint x="1250" y="370" as="sourcePoint" />
            <mxPoint x="1135" y="374" as="targetPoint" />
            <Array as="points">
              <mxPoint x="1175" y="370" />
              <mxPoint x="1175" y="374" />
              <mxPoint x="1135" y="374" />
            </Array>
            <mxPoint as="offset" />
          </mxGeometry>
        </mxCell>
        <mxCell id="RPfS-tQNrVsL4vn0U_FK-62" value="Direccion" style="swimlane;fontStyle=1;align=center;verticalAlign=top;childLayout=stackLayout;horizontal=1;startSize=26;horizontalStack=0;resizeParent=1;resizeParentMax=0;resizeLast=0;collapsible=1;marginBottom=0;whiteSpace=wrap;html=1;" parent="1" vertex="1">
          <mxGeometry x="1125" y="530" width="160" height="100" as="geometry" />
        </mxCell>
        <mxCell id="RPfS-tQNrVsL4vn0U_FK-63" value="- angulo: int;" style="text;strokeColor=none;fillColor=none;align=left;verticalAlign=top;spacingLeft=4;spacingRight=4;overflow=hidden;rotatable=0;points=[[0,0.5],[1,0.5]];portConstraint=eastwest;whiteSpace=wrap;html=1;" parent="RPfS-tQNrVsL4vn0U_FK-62" vertex="1">
          <mxGeometry y="26" width="160" height="26" as="geometry" />
        </mxCell>
        <mxCell id="RPfS-tQNrVsL4vn0U_FK-64" value="" style="line;strokeWidth=1;fillColor=none;align=left;verticalAlign=middle;spacingTop=-1;spacingLeft=3;spacingRight=3;rotatable=0;labelPosition=right;points=[];portConstraint=eastwest;strokeColor=inherit;" parent="RPfS-tQNrVsL4vn0U_FK-62" vertex="1">
          <mxGeometry y="52" width="160" height="8" as="geometry" />
        </mxCell>
        <mxCell id="RPfS-tQNrVsL4vn0U_FK-65" value="+setAngulo(int);&lt;br&gt;+getAngulo():int;" style="text;strokeColor=none;fillColor=none;align=left;verticalAlign=top;spacingLeft=4;spacingRight=4;overflow=hidden;rotatable=0;points=[[0,0.5],[1,0.5]];portConstraint=eastwest;whiteSpace=wrap;html=1;" parent="RPfS-tQNrVsL4vn0U_FK-62" vertex="1">
          <mxGeometry y="60" width="160" height="40" as="geometry" />
        </mxCell>
        <mxCell id="RPfS-tQNrVsL4vn0U_FK-66" value="1" style="endArrow=open;html=1;endSize=12;startArrow=diamondThin;startSize=14;startFill=0;edgeStyle=orthogonalEdgeStyle;align=left;verticalAlign=bottom;rounded=0;exitX=0.665;exitY=0.996;exitDx=0;exitDy=0;exitPerimeter=0;entryX=0.5;entryY=0;entryDx=0;entryDy=0;" parent="1" source="RPfS-tQNrVsL4vn0U_FK-38" target="RPfS-tQNrVsL4vn0U_FK-62" edge="1">
          <mxGeometry x="-1" y="3" relative="1" as="geometry">
            <mxPoint x="1145" y="450" as="sourcePoint" />
            <mxPoint x="1305" y="450" as="targetPoint" />
          </mxGeometry>
        </mxCell>
        <mxCell id="RPfS-tQNrVsL4vn0U_FK-67" value="1" style="endArrow=open;html=1;endSize=12;startArrow=diamondThin;startSize=14;startFill=0;edgeStyle=orthogonalEdgeStyle;align=left;verticalAlign=bottom;rounded=0;exitX=0.5;exitY=1;exitDx=0;exitDy=0;entryX=0.75;entryY=0;entryDx=0;entryDy=0;" parent="1" target="RPfS-tQNrVsL4vn0U_FK-62" edge="1">
          <mxGeometry x="-1" y="3" relative="1" as="geometry">
            <mxPoint x="1329.9999999999995" y="377.9999999999999" as="sourcePoint" />
            <mxPoint x="1255" y="440" as="targetPoint" />
          </mxGeometry>
        </mxCell>
        <mxCell id="RPfS-tQNrVsL4vn0U_FK-68" value="1" style="endArrow=open;html=1;endSize=12;startArrow=diamondThin;startSize=14;startFill=0;edgeStyle=orthogonalEdgeStyle;align=left;verticalAlign=bottom;rounded=0;exitX=0.75;exitY=1;exitDx=0;exitDy=0;entryX=0.25;entryY=0;entryDx=0;entryDy=0;" parent="1" target="RPfS-tQNrVsL4vn0U_FK-52" edge="1">
          <mxGeometry x="-1" y="3" relative="1" as="geometry">
            <mxPoint x="1369.9999999999995" y="377.9999999999999" as="sourcePoint" />
            <mxPoint x="1365" y="572" as="targetPoint" />
          </mxGeometry>
        </mxCell>
        <mxCell id="RPfS-tQNrVsL4vn0U_FK-69" value="1" style="endArrow=open;html=1;endSize=12;startArrow=diamondThin;startSize=14;startFill=1;edgeStyle=orthogonalEdgeStyle;align=left;verticalAlign=bottom;rounded=0;entryX=0.25;entryY=0;entryDx=0;entryDy=0;exitX=0.5;exitY=1;exitDx=0;exitDy=0;exitPerimeter=0;" parent="1" source="RPfS-tQNrVsL4vn0U_FK-4" target="RPfS-tQNrVsL4vn0U_FK-18" edge="1">
          <mxGeometry x="-1" y="3" relative="1" as="geometry">
            <mxPoint x="-10" y="420" as="sourcePoint" />
            <mxPoint x="100" y="420" as="targetPoint" />
            <Array as="points">
              <mxPoint x="-20" y="430" />
              <mxPoint x="345" y="430" />
            </Array>
          </mxGeometry>
        </mxCell>
        <mxCell id="RPfS-tQNrVsL4vn0U_FK-70" value="Tanque" style="swimlane;fontStyle=2;align=center;verticalAlign=top;childLayout=stackLayout;horizontal=1;startSize=26;horizontalStack=0;resizeParent=1;resizeLast=0;collapsible=1;marginBottom=0;rounded=0;shadow=0;strokeWidth=1;" parent="1" vertex="1">
          <mxGeometry x="1910" y="180" width="160" height="138" as="geometry">
            <mxRectangle x="230" y="140" width="160" height="26" as="alternateBounds" />
          </mxGeometry>
        </mxCell>
        <mxCell id="RPfS-tQNrVsL4vn0U_FK-71" value="+ angulo:int" style="text;align=left;verticalAlign=top;spacingLeft=4;spacingRight=4;overflow=hidden;rotatable=0;points=[[0,0.5],[1,0.5]];portConstraint=eastwest;" parent="RPfS-tQNrVsL4vn0U_FK-70" vertex="1">
          <mxGeometry y="26" width="160" height="26" as="geometry" />
        </mxCell>
        <mxCell id="RPfS-tQNrVsL4vn0U_FK-72" value="" style="line;html=1;strokeWidth=1;align=left;verticalAlign=middle;spacingTop=-1;spacingLeft=3;spacingRight=3;rotatable=0;labelPosition=right;points=[];portConstraint=eastwest;" parent="RPfS-tQNrVsL4vn0U_FK-70" vertex="1">
          <mxGeometry y="52" width="160" height="8" as="geometry" />
        </mxCell>
        <mxCell id="RPfS-tQNrVsL4vn0U_FK-73" value="Â movimiento(int) :boolean&#xa;Â disparar(): int&#xa;Â impacto(): boolean&#xa;Â penalizacion(): boolean" style="text;align=left;verticalAlign=top;spacingLeft=4;spacingRight=4;overflow=hidden;rotatable=0;points=[[0,0.5],[1,0.5]];portConstraint=eastwest;" parent="RPfS-tQNrVsL4vn0U_FK-70" vertex="1">
          <mxGeometry y="60" width="160" height="60" as="geometry" />
        </mxCell>
        <mxCell id="RPfS-tQNrVsL4vn0U_FK-74" value="Enemigo" style="swimlane;fontStyle=0;align=center;verticalAlign=top;childLayout=stackLayout;horizontal=1;startSize=26;horizontalStack=0;resizeParent=1;resizeLast=0;collapsible=1;marginBottom=0;rounded=0;shadow=0;strokeWidth=1;" parent="1" vertex="1">
          <mxGeometry x="1810" y="380" width="160" height="120" as="geometry">
            <mxRectangle x="130" y="380" width="160" height="26" as="alternateBounds" />
          </mxGeometry>
        </mxCell>
        <mxCell id="RPfS-tQNrVsL4vn0U_FK-75" value="- vida: int" style="text;align=left;verticalAlign=top;spacingLeft=4;spacingRight=4;overflow=hidden;rotatable=0;points=[[0,0.5],[1,0.5]];portConstraint=eastwest;" parent="RPfS-tQNrVsL4vn0U_FK-74" vertex="1">
          <mxGeometry y="26" width="160" height="26" as="geometry" />
        </mxCell>
        <mxCell id="RPfS-tQNrVsL4vn0U_FK-76" value="" style="line;html=1;strokeWidth=1;align=left;verticalAlign=middle;spacingTop=-1;spacingLeft=3;spacingRight=3;rotatable=0;labelPosition=right;points=[];portConstraint=eastwest;" parent="RPfS-tQNrVsL4vn0U_FK-74" vertex="1">
          <mxGeometry y="52" width="160" height="8" as="geometry" />
        </mxCell>
        <mxCell id="RPfS-tQNrVsL4vn0U_FK-77" value="-" style="text;align=left;verticalAlign=top;spacingLeft=4;spacingRight=4;overflow=hidden;rotatable=0;points=[[0,0.5],[1,0.5]];portConstraint=eastwest;fontStyle=4" parent="RPfS-tQNrVsL4vn0U_FK-74" vertex="1">
          <mxGeometry y="60" width="160" height="60" as="geometry" />
        </mxCell>
        <mxCell id="RPfS-tQNrVsL4vn0U_FK-78" value="" style="endArrow=block;endSize=10;endFill=0;shadow=0;strokeWidth=1;rounded=0;edgeStyle=elbowEdgeStyle;elbow=vertical;exitX=0.392;exitY=-0.017;exitDx=0;exitDy=0;exitPerimeter=0;" parent="1" source="RPfS-tQNrVsL4vn0U_FK-74" edge="1">
          <mxGeometry width="160" relative="1" as="geometry">
            <mxPoint x="1890" y="213" as="sourcePoint" />
            <mxPoint x="1980" y="320" as="targetPoint" />
            <Array as="points">
              <mxPoint x="1900" y="360" />
              <mxPoint x="1940" y="349" />
            </Array>
          </mxGeometry>
        </mxCell>
        <mxCell id="RPfS-tQNrVsL4vn0U_FK-79" value="TanqueJug" style="swimlane;fontStyle=0;align=center;verticalAlign=top;childLayout=stackLayout;horizontal=1;startSize=26;horizontalStack=0;resizeParent=1;resizeLast=0;collapsible=1;marginBottom=0;rounded=0;shadow=0;strokeWidth=1;" parent="1" vertex="1">
          <mxGeometry x="2024" y="380" width="160" height="130" as="geometry">
            <mxRectangle x="340" y="380" width="170" height="26" as="alternateBounds" />
          </mxGeometry>
        </mxCell>
        <mxCell id="RPfS-tQNrVsL4vn0U_FK-80" value="- vida: int" style="text;align=left;verticalAlign=top;spacingLeft=4;spacingRight=4;overflow=hidden;rotatable=0;points=[[0,0.5],[1,0.5]];portConstraint=eastwest;" parent="RPfS-tQNrVsL4vn0U_FK-79" vertex="1">
          <mxGeometry y="26" width="160" height="26" as="geometry" />
        </mxCell>
        <mxCell id="RPfS-tQNrVsL4vn0U_FK-81" value="" style="line;html=1;strokeWidth=1;align=left;verticalAlign=middle;spacingTop=-1;spacingLeft=3;spacingRight=3;rotatable=0;labelPosition=right;points=[];portConstraint=eastwest;" parent="RPfS-tQNrVsL4vn0U_FK-79" vertex="1">
          <mxGeometry y="52" width="160" height="8" as="geometry" />
        </mxCell>
        <mxCell id="RPfS-tQNrVsL4vn0U_FK-82" value="-" style="text;align=left;verticalAlign=top;spacingLeft=4;spacingRight=4;overflow=hidden;rotatable=0;points=[[0,0.5],[1,0.5]];portConstraint=eastwest;" parent="RPfS-tQNrVsL4vn0U_FK-79" vertex="1">
          <mxGeometry y="60" width="160" height="40" as="geometry" />
        </mxCell>
        <mxCell id="RPfS-tQNrVsL4vn0U_FK-83" value="" style="endArrow=block;endSize=10;endFill=0;shadow=0;strokeWidth=1;rounded=0;edgeStyle=elbowEdgeStyle;elbow=vertical;" parent="1" source="RPfS-tQNrVsL4vn0U_FK-79" target="RPfS-tQNrVsL4vn0U_FK-70" edge="1">
          <mxGeometry width="160" relative="1" as="geometry">
            <mxPoint x="1900" y="383" as="sourcePoint" />
            <mxPoint x="2000" y="281" as="targetPoint" />
            <Array as="points">
              <mxPoint x="2040" y="340" />
            </Array>
          </mxGeometry>
        </mxCell>
        <mxCell id="RPfS-tQNrVsL4vn0U_FK-84" value="Torreta" style="swimlane;fontStyle=0;align=center;verticalAlign=top;childLayout=stackLayout;horizontal=1;startSize=26;horizontalStack=0;resizeParent=1;resizeLast=0;collapsible=1;marginBottom=0;rounded=0;shadow=0;strokeWidth=1;" parent="1" vertex="1">
          <mxGeometry x="2198" y="80" width="162" height="140" as="geometry">
            <mxRectangle x="550" y="140" width="160" height="26" as="alternateBounds" />
          </mxGeometry>
        </mxCell>
        <mxCell id="RPfS-tQNrVsL4vn0U_FK-85" value="- radar:int" style="text;align=left;verticalAlign=top;spacingLeft=4;spacingRight=4;overflow=hidden;rotatable=0;points=[[0,0.5],[1,0.5]];portConstraint=eastwest;" parent="RPfS-tQNrVsL4vn0U_FK-84" vertex="1">
          <mxGeometry y="26" width="162" height="26" as="geometry" />
        </mxCell>
        <mxCell id="RPfS-tQNrVsL4vn0U_FK-86" value="- calentar: boolean" style="text;align=left;verticalAlign=top;spacingLeft=4;spacingRight=4;overflow=hidden;rotatable=0;points=[[0,0.5],[1,0.5]];portConstraint=eastwest;rounded=0;shadow=0;html=0;" parent="RPfS-tQNrVsL4vn0U_FK-84" vertex="1">
          <mxGeometry y="52" width="162" height="26" as="geometry" />
        </mxCell>
        <mxCell id="RPfS-tQNrVsL4vn0U_FK-87" value="" style="line;html=1;strokeWidth=1;align=left;verticalAlign=middle;spacingTop=-1;spacingLeft=3;spacingRight=3;rotatable=0;labelPosition=right;points=[];portConstraint=eastwest;" parent="RPfS-tQNrVsL4vn0U_FK-84" vertex="1">
          <mxGeometry y="78" width="162" height="8" as="geometry" />
        </mxCell>
        <mxCell id="RPfS-tQNrVsL4vn0U_FK-88" value="+ sobreCalentar(int): boolean" style="text;align=left;verticalAlign=top;spacingLeft=4;spacingRight=4;overflow=hidden;rotatable=0;points=[[0,0.5],[1,0.5]];portConstraint=eastwest;" parent="RPfS-tQNrVsL4vn0U_FK-84" vertex="1">
          <mxGeometry y="86" width="162" height="26" as="geometry" />
        </mxCell>
        <mxCell id="RPfS-tQNrVsL4vn0U_FK-89" value="+ detectar() :boolean" style="text;align=left;verticalAlign=top;spacingLeft=4;spacingRight=4;overflow=hidden;rotatable=0;points=[[0,0.5],[1,0.5]];portConstraint=eastwest;" parent="RPfS-tQNrVsL4vn0U_FK-84" vertex="1">
          <mxGeometry y="112" width="162" height="26" as="geometry" />
        </mxCell>
        <mxCell id="RPfS-tQNrVsL4vn0U_FK-90" value="Bala" style="swimlane;fontStyle=0;align=center;verticalAlign=top;childLayout=stackLayout;horizontal=1;startSize=26;horizontalStack=0;resizeParent=1;resizeLast=0;collapsible=1;marginBottom=0;rounded=0;shadow=0;strokeWidth=1;" parent="1" vertex="1">
          <mxGeometry x="2240" y="280" width="160" height="100" as="geometry">
            <mxRectangle x="550" y="140" width="160" height="26" as="alternateBounds" />
          </mxGeometry>
        </mxCell>
        <mxCell id="RPfS-tQNrVsL4vn0U_FK-91" value="-" style="text;align=left;verticalAlign=top;spacingLeft=4;spacingRight=4;overflow=hidden;rotatable=0;points=[[0,0.5],[1,0.5]];portConstraint=eastwest;rounded=0;shadow=0;html=0;" parent="RPfS-tQNrVsL4vn0U_FK-90" vertex="1">
          <mxGeometry y="26" width="160" height="26" as="geometry" />
        </mxCell>
        <mxCell id="RPfS-tQNrVsL4vn0U_FK-92" value="" style="line;html=1;strokeWidth=1;align=left;verticalAlign=middle;spacingTop=-1;spacingLeft=3;spacingRight=3;rotatable=0;labelPosition=right;points=[];portConstraint=eastwest;" parent="RPfS-tQNrVsL4vn0U_FK-90" vertex="1">
          <mxGeometry y="52" width="160" height="8" as="geometry" />
        </mxCell>
        <mxCell id="RPfS-tQNrVsL4vn0U_FK-93" value="Â contador(): int" style="text;align=left;verticalAlign=top;spacingLeft=4;spacingRight=4;overflow=hidden;rotatable=0;points=[[0,0.5],[1,0.5]];portConstraint=eastwest;" parent="RPfS-tQNrVsL4vn0U_FK-90" vertex="1">
          <mxGeometry y="60" width="160" height="26" as="geometry" />
        </mxCell>
        <mxCell id="RPfS-tQNrVsL4vn0U_FK-94" style="edgeStyle=orthogonalEdgeStyle;rounded=0;orthogonalLoop=1;jettySize=auto;html=1;exitX=0.5;exitY=1;exitDx=0;exitDy=0;entryX=-0.023;entryY=-0.093;entryDx=0;entryDy=0;entryPerimeter=0;" parent="1" source="RPfS-tQNrVsL4vn0U_FK-96" target="RPfS-tQNrVsL4vn0U_FK-77" edge="1">
          <mxGeometry relative="1" as="geometry">
            <Array as="points">
              <mxPoint x="1800" y="260" />
              <mxPoint x="1740" y="260" />
              <mxPoint x="1740" y="434" />
            </Array>
          </mxGeometry>
        </mxCell>
        <mxCell id="RPfS-tQNrVsL4vn0U_FK-95" value="0..N" style="edgeLabel;html=1;align=center;verticalAlign=middle;resizable=0;points=[];" parent="RPfS-tQNrVsL4vn0U_FK-94" connectable="0" vertex="1">
          <mxGeometry x="0.7231" y="3" relative="1" as="geometry">
            <mxPoint x="5" y="-7" as="offset" />
          </mxGeometry>
        </mxCell>
        <mxCell id="RPfS-tQNrVsL4vn0U_FK-96" value="Robocode" style="swimlane;fontStyle=2;align=center;verticalAlign=top;childLayout=stackLayout;horizontal=1;startSize=26;horizontalStack=0;resizeParent=1;resizeLast=0;collapsible=1;marginBottom=0;rounded=0;shadow=0;strokeWidth=1;" parent="1" vertex="1">
          <mxGeometry x="1720" y="60" width="160" height="138" as="geometry">
            <mxRectangle x="230" y="140" width="160" height="26" as="alternateBounds" />
          </mxGeometry>
        </mxCell>
        <mxCell id="RPfS-tQNrVsL4vn0U_FK-97" value="- ancho:int" style="text;align=left;verticalAlign=top;spacingLeft=4;spacingRight=4;overflow=hidden;rotatable=0;points=[[0,0.5],[1,0.5]];portConstraint=eastwest;" parent="RPfS-tQNrVsL4vn0U_FK-96" vertex="1">
          <mxGeometry y="26" width="160" height="26" as="geometry" />
        </mxCell>
        <mxCell id="RPfS-tQNrVsL4vn0U_FK-98" value="- altura:int" style="text;align=left;verticalAlign=top;spacingLeft=4;spacingRight=4;overflow=hidden;rotatable=0;points=[[0,0.5],[1,0.5]];portConstraint=eastwest;rounded=0;shadow=0;html=0;" parent="RPfS-tQNrVsL4vn0U_FK-96" vertex="1">
          <mxGeometry y="52" width="160" height="26" as="geometry" />
        </mxCell>
        <mxCell id="RPfS-tQNrVsL4vn0U_FK-99" value="" style="line;html=1;strokeWidth=1;align=left;verticalAlign=middle;spacingTop=-1;spacingLeft=3;spacingRight=3;rotatable=0;labelPosition=right;points=[];portConstraint=eastwest;" parent="RPfS-tQNrVsL4vn0U_FK-96" vertex="1">
          <mxGeometry y="78" width="160" height="8" as="geometry" />
        </mxCell>
        <mxCell id="RPfS-tQNrVsL4vn0U_FK-100" value="- iniciar(int, int)" style="text;align=left;verticalAlign=top;spacingLeft=4;spacingRight=4;overflow=hidden;rotatable=0;points=[[0,0.5],[1,0.5]];portConstraint=eastwest;" parent="RPfS-tQNrVsL4vn0U_FK-96" vertex="1">
          <mxGeometry y="86" width="160" height="26" as="geometry" />
        </mxCell>
        <mxCell id="RPfS-tQNrVsL4vn0U_FK-101" value="Torreta" style="endArrow=open;html=1;endSize=12;startArrow=diamondThin;startSize=14;startFill=1;edgeStyle=orthogonalEdgeStyle;align=left;verticalAlign=bottom;rounded=0;exitX=1;exitY=0.5;exitDx=0;exitDy=0;entryX=-0.017;entryY=1.138;entryDx=0;entryDy=0;entryPerimeter=0;" parent="1" source="RPfS-tQNrVsL4vn0U_FK-71" target="RPfS-tQNrVsL4vn0U_FK-86" edge="1">
          <mxGeometry x="-1" y="3" relative="1" as="geometry">
            <mxPoint x="2090" y="260" as="sourcePoint" />
            <mxPoint x="2250" y="260" as="targetPoint" />
          </mxGeometry>
        </mxCell>
        <mxCell id="RPfS-tQNrVsL4vn0U_FK-102" value="1" style="edgeLabel;html=1;align=center;verticalAlign=middle;resizable=0;points=[];" parent="RPfS-tQNrVsL4vn0U_FK-101" connectable="0" vertex="1">
          <mxGeometry x="0.7104" y="-1" relative="1" as="geometry">
            <mxPoint y="-13" as="offset" />
          </mxGeometry>
        </mxCell>
        <mxCell id="RPfS-tQNrVsL4vn0U_FK-103" value="Bala" style="endArrow=open;html=1;endSize=12;startArrow=diamondThin;startSize=14;startFill=0;edgeStyle=orthogonalEdgeStyle;align=left;verticalAlign=bottom;rounded=0;exitX=1;exitY=0.5;exitDx=0;exitDy=0;entryX=1;entryY=0.5;entryDx=0;entryDy=0;" parent="1" source="RPfS-tQNrVsL4vn0U_FK-86" target="RPfS-tQNrVsL4vn0U_FK-91" edge="1">
          <mxGeometry x="-1" y="3" relative="1" as="geometry">
            <mxPoint x="2400" y="130" as="sourcePoint" />
            <mxPoint x="2560" y="130" as="targetPoint" />
            <Array as="points">
              <mxPoint x="2470" y="145" />
              <mxPoint x="2470" y="319" />
            </Array>
          </mxGeometry>
        </mxCell>
        <mxCell id="RPfS-tQNrVsL4vn0U_FK-104" value="0..N" style="edgeLabel;html=1;align=center;verticalAlign=middle;resizable=0;points=[];" parent="RPfS-tQNrVsL4vn0U_FK-103" connectable="0" vertex="1">
          <mxGeometry x="0.8486" y="-1" relative="1" as="geometry">
            <mxPoint y="-18" as="offset" />
          </mxGeometry>
        </mxCell>
        <mxCell id="RPfS-tQNrVsL4vn0U_FK-105" value="1" style="html=1;verticalAlign=bottom;endArrow=block;curved=0;rounded=0;" parent="1" edge="1">
          <mxGeometry x="0.8705" width="80" relative="1" as="geometry">
            <mxPoint x="1730" y="200" as="sourcePoint" />
            <mxPoint x="2120" y="510" as="targetPoint" />
            <Array as="points">
              <mxPoint x="1730" y="540" />
              <mxPoint x="2120" y="540" />
            </Array>
            <mxPoint as="offset" />
          </mxGeometry>
        </mxCell>
        <mxCell id="RPfS-tQNrVsL4vn0U_FK-106" value="Posicion" style="text;html=1;align=center;verticalAlign=middle;resizable=0;points=[];autosize=1;strokeColor=none;fillColor=none;" parent="1" vertex="1">
          <mxGeometry x="305" y="160" width="70" height="30" as="geometry" />
        </mxCell>
        <mxCell id="RPfS-tQNrVsL4vn0U_FK-107" value="Tanque" style="text;html=1;align=center;verticalAlign=middle;resizable=0;points=[];autosize=1;strokeColor=none;fillColor=none;" parent="1" vertex="1">
          <mxGeometry y="150" width="60" height="30" as="geometry" />
        </mxCell>
        <mxCell id="RPfS-tQNrVsL4vn0U_FK-108" value="Escuadron" style="text;html=1;align=center;verticalAlign=middle;resizable=0;points=[];autosize=1;strokeColor=none;fillColor=none;" parent="1" vertex="1">
          <mxGeometry x="130" y="200" width="80" height="30" as="geometry" />
        </mxCell>
        <mxCell id="RPfS-tQNrVsL4vn0U_FK-109" value="Posicion" style="text;html=1;align=center;verticalAlign=middle;resizable=0;points=[];autosize=1;strokeColor=none;fillColor=none;" parent="1" vertex="1">
          <mxGeometry x="-20" y="410" width="70" height="30" as="geometry" />
        </mxCell>
        <mxCell id="RPfS-tQNrVsL4vn0U_FK-110" value="Direccion" style="text;html=1;align=center;verticalAlign=middle;resizable=0;points=[];autosize=1;strokeColor=none;fillColor=none;" parent="1" vertex="1">
          <mxGeometry x="-40" y="440" width="70" height="30" as="geometry" />
        </mxCell>
        <mxCell id="RPfS-tQNrVsL4vn0U_FK-111" value="Torreta" style="text;html=1;align=center;verticalAlign=middle;resizable=0;points=[];autosize=1;strokeColor=none;fillColor=none;" parent="1" vertex="1">
          <mxGeometry x="-170" y="260" width="60" height="30" as="geometry" />
        </mxCell>
        <mxCell id="RPfS-tQNrVsL4vn0U_FK-112" value="Radar" style="text;html=1;align=center;verticalAlign=middle;resizable=0;points=[];autosize=1;strokeColor=none;fillColor=none;" parent="1" vertex="1">
          <mxGeometry x="-320" y="440" width="60" height="30" as="geometry" />
        </mxCell>
        <mxCell id="RPfS-tQNrVsL4vn0U_FK-113" value="Tanque" style="text;html=1;align=center;verticalAlign=middle;resizable=0;points=[];autosize=1;strokeColor=none;fillColor=none;" parent="1" vertex="1">
          <mxGeometry x="110" y="328" width="60" height="30" as="geometry" />
        </mxCell>
        <mxCell id="RPfS-tQNrVsL4vn0U_FK-114" value="0..800" style="text;html=1;align=center;verticalAlign=middle;resizable=0;points=[];autosize=1;strokeColor=none;fillColor=none;" parent="1" vertex="1">
          <mxGeometry x="380" y="510" width="60" height="30" as="geometry" />
        </mxCell>
        <mxCell id="RPfS-tQNrVsL4vn0U_FK-115" value="1" style="text;html=1;align=center;verticalAlign=middle;resizable=0;points=[];autosize=1;strokeColor=none;fillColor=none;" parent="1" vertex="1">
          <mxGeometry x="125" y="470" width="30" height="30" as="geometry" />
        </mxCell>
        <mxCell id="RPfS-tQNrVsL4vn0U_FK-116" value="1" style="text;html=1;align=center;verticalAlign=middle;resizable=0;points=[];autosize=1;strokeColor=none;fillColor=none;" parent="1" vertex="1">
          <mxGeometry x="320" y="510" width="30" height="30" as="geometry" />
        </mxCell>
        <mxCell id="RPfS-tQNrVsL4vn0U_FK-117" value="1" style="text;html=1;align=center;verticalAlign=middle;resizable=0;points=[];autosize=1;strokeColor=none;fillColor=none;" parent="1" vertex="1">
          <mxGeometry x="190" y="230" width="30" height="30" as="geometry" />
        </mxCell>
        <mxCell id="RPfS-tQNrVsL4vn0U_FK-118" value="1" style="text;html=1;align=center;verticalAlign=middle;resizable=0;points=[];autosize=1;strokeColor=none;fillColor=none;" parent="1" vertex="1">
          <mxGeometry x="-50" y="190" width="30" height="30" as="geometry" />
        </mxCell>
        <mxCell id="RPfS-tQNrVsL4vn0U_FK-119" value="1" style="text;html=1;align=center;verticalAlign=middle;resizable=0;points=[];autosize=1;strokeColor=none;fillColor=none;" parent="1" vertex="1">
          <mxGeometry x="-200" y="370" width="30" height="30" as="geometry" />
        </mxCell>
        <mxCell id="RPfS-tQNrVsL4vn0U_FK-120" value="1" style="text;html=1;align=center;verticalAlign=middle;resizable=0;points=[];autosize=1;strokeColor=none;fillColor=none;" parent="1" vertex="1">
          <mxGeometry x="-350" y="575" width="30" height="30" as="geometry" />
        </mxCell>
        <mxCell id="RPfS-tQNrVsL4vn0U_FK-121" value="0..N" style="text;html=1;align=center;verticalAlign=middle;resizable=0;points=[];autosize=1;strokeColor=none;fillColor=none;" parent="1" vertex="1">
          <mxGeometry x="55" y="320" width="50" height="30" as="geometry" />
        </mxCell>
        <mxCell id="RPfS-tQNrVsL4vn0U_FK-122" value="1" style="endArrow=open;html=1;endSize=12;startArrow=diamondThin;startSize=14;startFill=1;edgeStyle=orthogonalEdgeStyle;align=left;verticalAlign=bottom;rounded=0;exitX=0.5;exitY=1;exitDx=0;exitDy=0;entryX=0.75;entryY=0;entryDx=0;entryDy=0;" parent="1" source="RPfS-tQNrVsL4vn0U_FK-27" target="RPfS-tQNrVsL4vn0U_FK-30" edge="1">
          <mxGeometry x="-1" y="3" relative="1" as="geometry">
            <mxPoint x="-10" y="410" as="sourcePoint" />
            <mxPoint x="150" y="410" as="targetPoint" />
            <Array as="points">
              <mxPoint x="255" y="470" />
              <mxPoint x="170" y="470" />
            </Array>
          </mxGeometry>
        </mxCell>
        <mxCell id="RPfS-tQNrVsL4vn0U_FK-123" value="Direccion" style="text;html=1;align=center;verticalAlign=middle;resizable=0;points=[];autosize=1;strokeColor=none;fillColor=none;" parent="1" vertex="1">
          <mxGeometry x="250" y="370" width="70" height="30" as="geometry" />
        </mxCell>
        <mxCell id="RPfS-tQNrVsL4vn0U_FK-124" value="1" style="text;html=1;align=center;verticalAlign=middle;resizable=0;points=[];autosize=1;strokeColor=none;fillColor=none;" parent="1" vertex="1">
          <mxGeometry x="170" y="470" width="30" height="30" as="geometry" />
        </mxCell>
      </root>
    </mxGraphModel>
  </diagram>
  <diagram name="2-Libreria-de-graficos" id="v9hBNd7XnMHB6zdDsWRJ">
    <mxGraphModel grid="1" page="1" gridSize="10" guides="1" tooltips="1" connect="1" arrows="1" fold="1" pageScale="1" pageWidth="850" pageHeight="1100" math="0" shadow="0">
      <root>
        <mxCell id="0" />
        <mxCell id="1" parent="0" />
        <mxCell id="ItVK8vSU_FqFN2Ic42Dr-1" value="Grafico" style="swimlane;fontStyle=1;align=center;verticalAlign=top;childLayout=stackLayout;horizontal=1;startSize=26;horizontalStack=0;resizeParent=1;resizeParentMax=0;resizeLast=0;collapsible=1;marginBottom=0;whiteSpace=wrap;html=1;" vertex="1" parent="1">
          <mxGeometry x="395" y="470" width="160" height="110" as="geometry" />
        </mxCell>
        <mxCell id="ItVK8vSU_FqFN2Ic42Dr-2" value="-color:String;&lt;br&gt;-posicion: Posicion;" style="text;strokeColor=none;fillColor=none;align=left;verticalAlign=top;spacingLeft=4;spacingRight=4;overflow=hidden;rotatable=0;points=[[0,0.5],[1,0.5]];portConstraint=eastwest;whiteSpace=wrap;html=1;" vertex="1" parent="ItVK8vSU_FqFN2Ic42Dr-1">
          <mxGeometry y="26" width="160" height="34" as="geometry" />
        </mxCell>
        <mxCell id="ItVK8vSU_FqFN2Ic42Dr-3" value="" style="line;strokeWidth=1;fillColor=none;align=left;verticalAlign=middle;spacingTop=-1;spacingLeft=3;spacingRight=3;rotatable=0;labelPosition=right;points=[];portConstraint=eastwest;strokeColor=inherit;" vertex="1" parent="ItVK8vSU_FqFN2Ic42Dr-1">
          <mxGeometry y="60" width="160" height="8" as="geometry" />
        </mxCell>
        <mxCell id="ItVK8vSU_FqFN2Ic42Dr-4" value="+rotar(int x); // x = grados&lt;br&gt;+dibujar();" style="text;strokeColor=none;fillColor=none;align=left;verticalAlign=top;spacingLeft=4;spacingRight=4;overflow=hidden;rotatable=0;points=[[0,0.5],[1,0.5]];portConstraint=eastwest;whiteSpace=wrap;html=1;" vertex="1" parent="ItVK8vSU_FqFN2Ic42Dr-1">
          <mxGeometry y="68" width="160" height="42" as="geometry" />
        </mxCell>
        <mxCell id="ItVK8vSU_FqFN2Ic42Dr-5" value="Circulo" style="swimlane;fontStyle=1;align=center;verticalAlign=top;childLayout=stackLayout;horizontal=1;startSize=26;horizontalStack=0;resizeParent=1;resizeParentMax=0;resizeLast=0;collapsible=1;marginBottom=0;whiteSpace=wrap;html=1;" vertex="1" parent="1">
          <mxGeometry x="205" y="670" width="160" height="100" as="geometry" />
        </mxCell>
        <mxCell id="ItVK8vSU_FqFN2Ic42Dr-6" value="- radio: int;" style="text;strokeColor=none;fillColor=none;align=left;verticalAlign=top;spacingLeft=4;spacingRight=4;overflow=hidden;rotatable=0;points=[[0,0.5],[1,0.5]];portConstraint=eastwest;whiteSpace=wrap;html=1;" vertex="1" parent="ItVK8vSU_FqFN2Ic42Dr-5">
          <mxGeometry y="26" width="160" height="26" as="geometry" />
        </mxCell>
        <mxCell id="ItVK8vSU_FqFN2Ic42Dr-7" value="" style="line;strokeWidth=1;fillColor=none;align=left;verticalAlign=middle;spacingTop=-1;spacingLeft=3;spacingRight=3;rotatable=0;labelPosition=right;points=[];portConstraint=eastwest;strokeColor=inherit;" vertex="1" parent="ItVK8vSU_FqFN2Ic42Dr-5">
          <mxGeometry y="52" width="160" height="8" as="geometry" />
        </mxCell>
        <mxCell id="ItVK8vSU_FqFN2Ic42Dr-8" value="+ setRadio(int);&lt;br&gt;+ getRadio():int;" style="text;strokeColor=none;fillColor=none;align=left;verticalAlign=top;spacingLeft=4;spacingRight=4;overflow=hidden;rotatable=0;points=[[0,0.5],[1,0.5]];portConstraint=eastwest;whiteSpace=wrap;html=1;" vertex="1" parent="ItVK8vSU_FqFN2Ic42Dr-5">
          <mxGeometry y="60" width="160" height="40" as="geometry" />
        </mxCell>
        <mxCell id="ItVK8vSU_FqFN2Ic42Dr-9" value="Cuadrado" style="swimlane;fontStyle=1;align=center;verticalAlign=top;childLayout=stackLayout;horizontal=1;startSize=26;horizontalStack=0;resizeParent=1;resizeParentMax=0;resizeLast=0;collapsible=1;marginBottom=0;whiteSpace=wrap;html=1;" vertex="1" parent="1">
          <mxGeometry x="395" y="670" width="160" height="100" as="geometry" />
        </mxCell>
        <mxCell id="ItVK8vSU_FqFN2Ic42Dr-10" value="-lados: int;" style="text;strokeColor=none;fillColor=none;align=left;verticalAlign=top;spacingLeft=4;spacingRight=4;overflow=hidden;rotatable=0;points=[[0,0.5],[1,0.5]];portConstraint=eastwest;whiteSpace=wrap;html=1;" vertex="1" parent="ItVK8vSU_FqFN2Ic42Dr-9">
          <mxGeometry y="26" width="160" height="26" as="geometry" />
        </mxCell>
        <mxCell id="ItVK8vSU_FqFN2Ic42Dr-11" value="" style="line;strokeWidth=1;fillColor=none;align=left;verticalAlign=middle;spacingTop=-1;spacingLeft=3;spacingRight=3;rotatable=0;labelPosition=right;points=[];portConstraint=eastwest;strokeColor=inherit;" vertex="1" parent="ItVK8vSU_FqFN2Ic42Dr-9">
          <mxGeometry y="52" width="160" height="8" as="geometry" />
        </mxCell>
        <mxCell id="ItVK8vSU_FqFN2Ic42Dr-12" value="+setLados(int);&lt;br&gt;+getLados():int;" style="text;strokeColor=none;fillColor=none;align=left;verticalAlign=top;spacingLeft=4;spacingRight=4;overflow=hidden;rotatable=0;points=[[0,0.5],[1,0.5]];portConstraint=eastwest;whiteSpace=wrap;html=1;" vertex="1" parent="ItVK8vSU_FqFN2Ic42Dr-9">
          <mxGeometry y="60" width="160" height="40" as="geometry" />
        </mxCell>
        <mxCell id="ItVK8vSU_FqFN2Ic42Dr-13" value="Rectangulo" style="swimlane;fontStyle=1;align=center;verticalAlign=top;childLayout=stackLayout;horizontal=1;startSize=26;horizontalStack=0;resizeParent=1;resizeParentMax=0;resizeLast=0;collapsible=1;marginBottom=0;whiteSpace=wrap;html=1;" vertex="1" parent="1">
          <mxGeometry x="595" y="670" width="160" height="140" as="geometry" />
        </mxCell>
        <mxCell id="ItVK8vSU_FqFN2Ic42Dr-14" value="-Base :int;&lt;br&gt;-Altura: int;" style="text;strokeColor=none;fillColor=none;align=left;verticalAlign=top;spacingLeft=4;spacingRight=4;overflow=hidden;rotatable=0;points=[[0,0.5],[1,0.5]];portConstraint=eastwest;whiteSpace=wrap;html=1;" vertex="1" parent="ItVK8vSU_FqFN2Ic42Dr-13">
          <mxGeometry y="26" width="160" height="34" as="geometry" />
        </mxCell>
        <mxCell id="ItVK8vSU_FqFN2Ic42Dr-15" value="" style="line;strokeWidth=1;fillColor=none;align=left;verticalAlign=middle;spacingTop=-1;spacingLeft=3;spacingRight=3;rotatable=0;labelPosition=right;points=[];portConstraint=eastwest;strokeColor=inherit;" vertex="1" parent="ItVK8vSU_FqFN2Ic42Dr-13">
          <mxGeometry y="60" width="160" height="8" as="geometry" />
        </mxCell>
        <mxCell id="ItVK8vSU_FqFN2Ic42Dr-16" value="+setBase(int);&lt;br&gt;+getBase():int;&lt;br&gt;+setAltura(int);&lt;br&gt;+getAltura():int;" style="text;strokeColor=none;fillColor=none;align=left;verticalAlign=top;spacingLeft=4;spacingRight=4;overflow=hidden;rotatable=0;points=[[0,0.5],[1,0.5]];portConstraint=eastwest;whiteSpace=wrap;html=1;" vertex="1" parent="ItVK8vSU_FqFN2Ic42Dr-13">
          <mxGeometry y="68" width="160" height="72" as="geometry" />
        </mxCell>
        <mxCell id="ItVK8vSU_FqFN2Ic42Dr-17" value="Extends" style="endArrow=block;endSize=16;endFill=0;html=1;rounded=0;entryX=0.446;entryY=1.061;entryDx=0;entryDy=0;entryPerimeter=0;" edge="1" parent="1" target="ItVK8vSU_FqFN2Ic42Dr-4">
          <mxGeometry width="160" relative="1" as="geometry">
            <mxPoint x="466" y="670" as="sourcePoint" />
            <mxPoint x="495" y="640" as="targetPoint" />
          </mxGeometry>
        </mxCell>
        <mxCell id="ItVK8vSU_FqFN2Ic42Dr-18" value="Extends" style="endArrow=block;endSize=16;endFill=0;html=1;rounded=0;exitX=0.5;exitY=0;exitDx=0;exitDy=0;entryX=0.013;entryY=1.095;entryDx=0;entryDy=0;entryPerimeter=0;" edge="1" parent="1" source="ItVK8vSU_FqFN2Ic42Dr-5" target="ItVK8vSU_FqFN2Ic42Dr-4">
          <mxGeometry width="160" relative="1" as="geometry">
            <mxPoint x="405" y="667" as="sourcePoint" />
            <mxPoint x="395" y="590" as="targetPoint" />
          </mxGeometry>
        </mxCell>
        <mxCell id="ItVK8vSU_FqFN2Ic42Dr-19" value="Extends" style="endArrow=block;endSize=16;endFill=0;html=1;rounded=0;exitX=0.5;exitY=0;exitDx=0;exitDy=0;entryX=1.006;entryY=1.071;entryDx=0;entryDy=0;entryPerimeter=0;" edge="1" parent="1" source="ItVK8vSU_FqFN2Ic42Dr-13" target="ItVK8vSU_FqFN2Ic42Dr-4">
          <mxGeometry width="160" relative="1" as="geometry">
            <mxPoint x="545" y="667" as="sourcePoint" />
            <mxPoint x="555" y="590" as="targetPoint" />
          </mxGeometry>
        </mxCell>
        <mxCell id="ItVK8vSU_FqFN2Ic42Dr-20" value="Posicion" style="swimlane;fontStyle=1;align=center;verticalAlign=top;childLayout=stackLayout;horizontal=1;startSize=26;horizontalStack=0;resizeParent=1;resizeParentMax=0;resizeLast=0;collapsible=1;marginBottom=0;whiteSpace=wrap;html=1;" vertex="1" parent="1">
          <mxGeometry x="95" y="510" width="160" height="140" as="geometry" />
        </mxCell>
        <mxCell id="ItVK8vSU_FqFN2Ic42Dr-21" value="-posX:int;&lt;br&gt;-posY:int;" style="text;strokeColor=none;fillColor=none;align=left;verticalAlign=top;spacingLeft=4;spacingRight=4;overflow=hidden;rotatable=0;points=[[0,0.5],[1,0.5]];portConstraint=eastwest;whiteSpace=wrap;html=1;" vertex="1" parent="ItVK8vSU_FqFN2Ic42Dr-20">
          <mxGeometry y="26" width="160" height="34" as="geometry" />
        </mxCell>
        <mxCell id="ItVK8vSU_FqFN2Ic42Dr-22" value="" style="line;strokeWidth=1;fillColor=none;align=left;verticalAlign=middle;spacingTop=-1;spacingLeft=3;spacingRight=3;rotatable=0;labelPosition=right;points=[];portConstraint=eastwest;strokeColor=inherit;" vertex="1" parent="ItVK8vSU_FqFN2Ic42Dr-20">
          <mxGeometry y="60" width="160" height="8" as="geometry" />
        </mxCell>
        <mxCell id="ItVK8vSU_FqFN2Ic42Dr-23" value="+setPosX(int);&lt;br&gt;+setPosY(int);&lt;br&gt;+getPosX():int;&lt;br&gt;+getPosY():int;&lt;br&gt;" style="text;strokeColor=none;fillColor=none;align=left;verticalAlign=top;spacingLeft=4;spacingRight=4;overflow=hidden;rotatable=0;points=[[0,0.5],[1,0.5]];portConstraint=eastwest;whiteSpace=wrap;html=1;" vertex="1" parent="ItVK8vSU_FqFN2Ic42Dr-20">
          <mxGeometry y="68" width="160" height="72" as="geometry" />
        </mxCell>
        <mxCell id="ItVK8vSU_FqFN2Ic42Dr-24" value="1" style="endArrow=open;html=1;endSize=12;startArrow=diamondThin;startSize=14;startFill=0;edgeStyle=orthogonalEdgeStyle;align=left;verticalAlign=bottom;rounded=0;entryX=1;entryY=0.5;entryDx=0;entryDy=0;exitX=0;exitY=0.25;exitDx=0;exitDy=0;" edge="1" parent="1" source="ItVK8vSU_FqFN2Ic42Dr-1" target="ItVK8vSU_FqFN2Ic42Dr-21">
          <mxGeometry x="-1" y="3" relative="1" as="geometry">
            <mxPoint x="375" y="590" as="sourcePoint" />
            <mxPoint x="215" y="590" as="targetPoint" />
          </mxGeometry>
        </mxCell>
        <mxCell id="j0oGVWh9A1kZ5qtPcj_5-1" value="Figura" style="swimlane;fontStyle=2;align=center;verticalAlign=top;childLayout=stackLayout;horizontal=1;startSize=26;horizontalStack=0;resizeParent=1;resizeLast=0;collapsible=1;marginBottom=0;rounded=0;shadow=0;strokeWidth=1;" vertex="1" parent="1">
          <mxGeometry x="840" y="20" width="160" height="138" as="geometry">
            <mxRectangle x="230" y="140" width="160" height="26" as="alternateBounds" />
          </mxGeometry>
        </mxCell>
        <mxCell id="j0oGVWh9A1kZ5qtPcj_5-2" value="-" style="text;align=left;verticalAlign=top;spacingLeft=4;spacingRight=4;overflow=hidden;rotatable=0;points=[[0,0.5],[1,0.5]];portConstraint=eastwest;rounded=0;shadow=0;html=0;" vertex="1" parent="j0oGVWh9A1kZ5qtPcj_5-1">
          <mxGeometry y="26" width="160" height="26" as="geometry" />
        </mxCell>
        <mxCell id="j0oGVWh9A1kZ5qtPcj_5-3" value="" style="line;html=1;strokeWidth=1;align=left;verticalAlign=middle;spacingTop=-1;spacingLeft=3;spacingRight=3;rotatable=0;labelPosition=right;points=[];portConstraint=eastwest;" vertex="1" parent="j0oGVWh9A1kZ5qtPcj_5-1">
          <mxGeometry y="52" width="160" height="8" as="geometry" />
        </mxCell>
        <mxCell id="j0oGVWh9A1kZ5qtPcj_5-4" value="dibujar()&#xa;rotar(int)&#xa;mover(int, int)" style="text;align=left;verticalAlign=top;spacingLeft=4;spacingRight=4;overflow=hidden;rotatable=0;points=[[0,0.5],[1,0.5]];portConstraint=eastwest;" vertex="1" parent="j0oGVWh9A1kZ5qtPcj_5-1">
          <mxGeometry y="60" width="160" height="50" as="geometry" />
        </mxCell>
        <mxCell id="j0oGVWh9A1kZ5qtPcj_5-5" value="Rectangular" style="swimlane;fontStyle=0;align=center;verticalAlign=top;childLayout=stackLayout;horizontal=1;startSize=26;horizontalStack=0;resizeParent=1;resizeLast=0;collapsible=1;marginBottom=0;rounded=0;shadow=0;strokeWidth=1;" vertex="1" parent="1">
          <mxGeometry x="740" y="260" width="160" height="140" as="geometry">
            <mxRectangle x="130" y="380" width="160" height="26" as="alternateBounds" />
          </mxGeometry>
        </mxCell>
        <mxCell id="j0oGVWh9A1kZ5qtPcj_5-6" value="- base:int&#xa;- altura: int&#xa;- grado: int" style="text;align=left;verticalAlign=top;spacingLeft=4;spacingRight=4;overflow=hidden;rotatable=0;points=[[0,0.5],[1,0.5]];portConstraint=eastwest;" vertex="1" parent="j0oGVWh9A1kZ5qtPcj_5-5">
          <mxGeometry y="26" width="160" height="54" as="geometry" />
        </mxCell>
        <mxCell id="j0oGVWh9A1kZ5qtPcj_5-7" value="" style="line;html=1;strokeWidth=1;align=left;verticalAlign=middle;spacingTop=-1;spacingLeft=3;spacingRight=3;rotatable=0;labelPosition=right;points=[];portConstraint=eastwest;" vertex="1" parent="j0oGVWh9A1kZ5qtPcj_5-5">
          <mxGeometry y="80" width="160" height="8" as="geometry" />
        </mxCell>
        <mxCell id="j0oGVWh9A1kZ5qtPcj_5-8" value="-" style="text;align=left;verticalAlign=top;spacingLeft=4;spacingRight=4;overflow=hidden;rotatable=0;points=[[0,0.5],[1,0.5]];portConstraint=eastwest;fontStyle=0" vertex="1" parent="j0oGVWh9A1kZ5qtPcj_5-5">
          <mxGeometry y="88" width="160" height="42" as="geometry" />
        </mxCell>
        <mxCell id="j0oGVWh9A1kZ5qtPcj_5-9" value="" style="endArrow=block;endSize=10;endFill=0;shadow=0;strokeWidth=1;rounded=0;edgeStyle=elbowEdgeStyle;elbow=vertical;" edge="1" parent="1" source="j0oGVWh9A1kZ5qtPcj_5-5" target="j0oGVWh9A1kZ5qtPcj_5-1">
          <mxGeometry width="160" relative="1" as="geometry">
            <mxPoint x="820" y="103" as="sourcePoint" />
            <mxPoint x="820" y="103" as="targetPoint" />
          </mxGeometry>
        </mxCell>
        <mxCell id="j0oGVWh9A1kZ5qtPcj_5-10" value="Circulo" style="swimlane;fontStyle=0;align=center;verticalAlign=top;childLayout=stackLayout;horizontal=1;startSize=26;horizontalStack=0;resizeParent=1;resizeLast=0;collapsible=1;marginBottom=0;rounded=0;shadow=0;strokeWidth=1;" vertex="1" parent="1">
          <mxGeometry x="950" y="260" width="160" height="130" as="geometry">
            <mxRectangle x="340" y="380" width="170" height="26" as="alternateBounds" />
          </mxGeometry>
        </mxCell>
        <mxCell id="j0oGVWh9A1kZ5qtPcj_5-11" value="- radio: int&#xa;- grado: int" style="text;align=left;verticalAlign=top;spacingLeft=4;spacingRight=4;overflow=hidden;rotatable=0;points=[[0,0.5],[1,0.5]];portConstraint=eastwest;" vertex="1" parent="j0oGVWh9A1kZ5qtPcj_5-10">
          <mxGeometry y="26" width="160" height="34" as="geometry" />
        </mxCell>
        <mxCell id="j0oGVWh9A1kZ5qtPcj_5-12" value="" style="line;html=1;strokeWidth=1;align=left;verticalAlign=middle;spacingTop=-1;spacingLeft=3;spacingRight=3;rotatable=0;labelPosition=right;points=[];portConstraint=eastwest;" vertex="1" parent="j0oGVWh9A1kZ5qtPcj_5-10">
          <mxGeometry y="60" width="160" height="8" as="geometry" />
        </mxCell>
        <mxCell id="j0oGVWh9A1kZ5qtPcj_5-13" value="-" style="text;align=left;verticalAlign=top;spacingLeft=4;spacingRight=4;overflow=hidden;rotatable=0;points=[[0,0.5],[1,0.5]];portConstraint=eastwest;" vertex="1" parent="j0oGVWh9A1kZ5qtPcj_5-10">
          <mxGeometry y="68" width="160" height="62" as="geometry" />
        </mxCell>
        <mxCell id="j0oGVWh9A1kZ5qtPcj_5-14" value="" style="endArrow=block;endSize=10;endFill=0;shadow=0;strokeWidth=1;rounded=0;edgeStyle=elbowEdgeStyle;elbow=vertical;entryX=0.75;entryY=1;entryDx=0;entryDy=0;" edge="1" parent="1" source="j0oGVWh9A1kZ5qtPcj_5-10" target="j0oGVWh9A1kZ5qtPcj_5-1">
          <mxGeometry width="160" relative="1" as="geometry">
            <mxPoint x="830" y="273" as="sourcePoint" />
            <mxPoint x="930" y="171" as="targetPoint" />
          </mxGeometry>
        </mxCell>
        <mxCell id="j0oGVWh9A1kZ5qtPcj_5-15" value="Cuadrado" style="swimlane;fontStyle=0;align=center;verticalAlign=top;childLayout=stackLayout;horizontal=1;startSize=26;horizontalStack=0;resizeParent=1;resizeLast=0;collapsible=1;marginBottom=0;rounded=0;shadow=0;strokeWidth=1;" vertex="1" parent="1">
          <mxGeometry x="1128" y="20" width="160" height="150" as="geometry">
            <mxRectangle x="550" y="140" width="160" height="26" as="alternateBounds" />
          </mxGeometry>
        </mxCell>
        <mxCell id="j0oGVWh9A1kZ5qtPcj_5-16" value="- grado:int" style="text;align=left;verticalAlign=top;spacingLeft=4;spacingRight=4;overflow=hidden;rotatable=0;points=[[0,0.5],[1,0.5]];portConstraint=eastwest;" vertex="1" parent="j0oGVWh9A1kZ5qtPcj_5-15">
          <mxGeometry y="26" width="160" height="26" as="geometry" />
        </mxCell>
        <mxCell id="j0oGVWh9A1kZ5qtPcj_5-17" value="- lado: int" style="text;align=left;verticalAlign=top;spacingLeft=4;spacingRight=4;overflow=hidden;rotatable=0;points=[[0,0.5],[1,0.5]];portConstraint=eastwest;rounded=0;shadow=0;html=0;" vertex="1" parent="j0oGVWh9A1kZ5qtPcj_5-15">
          <mxGeometry y="52" width="160" height="26" as="geometry" />
        </mxCell>
        <mxCell id="j0oGVWh9A1kZ5qtPcj_5-18" value="" style="line;html=1;strokeWidth=1;align=left;verticalAlign=middle;spacingTop=-1;spacingLeft=3;spacingRight=3;rotatable=0;labelPosition=right;points=[];portConstraint=eastwest;" vertex="1" parent="j0oGVWh9A1kZ5qtPcj_5-15">
          <mxGeometry y="78" width="160" height="8" as="geometry" />
        </mxCell>
        <mxCell id="j0oGVWh9A1kZ5qtPcj_5-19" value="-" style="text;align=left;verticalAlign=top;spacingLeft=4;spacingRight=4;overflow=hidden;rotatable=0;points=[[0,0.5],[1,0.5]];portConstraint=eastwest;" vertex="1" parent="j0oGVWh9A1kZ5qtPcj_5-15">
          <mxGeometry y="86" width="160" height="26" as="geometry" />
        </mxCell>
        <mxCell id="j0oGVWh9A1kZ5qtPcj_5-20" value="" style="endArrow=block;endSize=16;endFill=0;html=1;rounded=0;exitX=0;exitY=0.5;exitDx=0;exitDy=0;entryX=1;entryY=0.5;entryDx=0;entryDy=0;" edge="1" parent="1" target="j0oGVWh9A1kZ5qtPcj_5-2">
          <mxGeometry x="-0.0784" y="-29" width="160" relative="1" as="geometry">
            <mxPoint x="1128" y="111" as="sourcePoint" />
            <mxPoint x="1070" y="100" as="targetPoint" />
            <mxPoint as="offset" />
          </mxGeometry>
        </mxCell>
      </root>
    </mxGraphModel>
  </diagram>
  <diagram name="3-Getting there from here" id="9u-D1LXVVpRLgWDYXXRF">
    <mxGraphModel grid="1" page="1" gridSize="10" guides="1" tooltips="1" connect="0" arrows="1" fold="1" pageScale="1" pageWidth="850" pageHeight="1100" math="0" shadow="0">
      <root>
        <mxCell id="0" />
        <mxCell id="1" parent="0" />
        <mxCell id="ZrhF_78FV9TcK1DXN0-2-1" value="Tablero" style="swimlane;fontStyle=1;align=center;verticalAlign=top;childLayout=stackLayout;horizontal=1;startSize=26;horizontalStack=0;resizeParent=1;resizeParentMax=0;resizeLast=0;collapsible=1;marginBottom=0;whiteSpace=wrap;html=1;" vertex="1" parent="1">
          <mxGeometry x="280" y="110" width="180" height="114" as="geometry" />
        </mxCell>
        <mxCell id="ZrhF_78FV9TcK1DXN0-2-2" value="-N:int;&lt;br&gt;-M: int;&lt;br&gt;-Tablero:array[M][N]Celda;" style="text;strokeColor=none;fillColor=none;align=left;verticalAlign=top;spacingLeft=4;spacingRight=4;overflow=hidden;rotatable=0;points=[[0,0.5],[1,0.5]];portConstraint=eastwest;whiteSpace=wrap;html=1;" vertex="1" parent="ZrhF_78FV9TcK1DXN0-2-1">
          <mxGeometry y="26" width="180" height="54" as="geometry" />
        </mxCell>
        <mxCell id="ZrhF_78FV9TcK1DXN0-2-3" value="" style="line;strokeWidth=1;fillColor=none;align=left;verticalAlign=middle;spacingTop=-1;spacingLeft=3;spacingRight=3;rotatable=0;labelPosition=right;points=[];portConstraint=eastwest;strokeColor=inherit;" vertex="1" parent="ZrhF_78FV9TcK1DXN0-2-1">
          <mxGeometry y="80" width="180" height="8" as="geometry" />
        </mxCell>
        <mxCell id="ZrhF_78FV9TcK1DXN0-2-4" value="+getTablero(array[][]Tablero);" style="text;strokeColor=none;fillColor=none;align=left;verticalAlign=top;spacingLeft=4;spacingRight=4;overflow=hidden;rotatable=0;points=[[0,0.5],[1,0.5]];portConstraint=eastwest;whiteSpace=wrap;html=1;" vertex="1" parent="ZrhF_78FV9TcK1DXN0-2-1">
          <mxGeometry y="88" width="180" height="26" as="geometry" />
        </mxCell>
        <mxCell id="ZrhF_78FV9TcK1DXN0-2-5" value="Posicion" style="swimlane;fontStyle=1;align=center;verticalAlign=top;childLayout=stackLayout;horizontal=1;startSize=26;horizontalStack=0;resizeParent=1;resizeParentMax=0;resizeLast=0;collapsible=1;marginBottom=0;whiteSpace=wrap;html=1;" vertex="1" parent="1">
          <mxGeometry x="100" y="366" width="160" height="150" as="geometry" />
        </mxCell>
        <mxCell id="ZrhF_78FV9TcK1DXN0-2-6" value="-posX:int;&lt;br&gt;-posY:int;" style="text;strokeColor=none;fillColor=none;align=left;verticalAlign=top;spacingLeft=4;spacingRight=4;overflow=hidden;rotatable=0;points=[[0,0.5],[1,0.5]];portConstraint=eastwest;whiteSpace=wrap;html=1;" vertex="1" parent="ZrhF_78FV9TcK1DXN0-2-5">
          <mxGeometry y="26" width="160" height="44" as="geometry" />
        </mxCell>
        <mxCell id="ZrhF_78FV9TcK1DXN0-2-7" value="" style="line;strokeWidth=1;fillColor=none;align=left;verticalAlign=middle;spacingTop=-1;spacingLeft=3;spacingRight=3;rotatable=0;labelPosition=right;points=[];portConstraint=eastwest;strokeColor=inherit;" vertex="1" parent="ZrhF_78FV9TcK1DXN0-2-5">
          <mxGeometry y="70" width="160" height="8" as="geometry" />
        </mxCell>
        <mxCell id="ZrhF_78FV9TcK1DXN0-2-8" value="+setPosX(int);&lt;br&gt;+getPosY():int;&lt;br&gt;+setPosY(int);&lt;br style=&quot;border-color: var(--border-color);&quot;&gt;+getPosX():int;" style="text;strokeColor=none;fillColor=none;align=left;verticalAlign=top;spacingLeft=4;spacingRight=4;overflow=hidden;rotatable=0;points=[[0,0.5],[1,0.5]];portConstraint=eastwest;whiteSpace=wrap;html=1;" vertex="1" parent="ZrhF_78FV9TcK1DXN0-2-5">
          <mxGeometry y="78" width="160" height="72" as="geometry" />
        </mxCell>
        <mxCell id="ZrhF_78FV9TcK1DXN0-2-9" value="Celda" style="swimlane;fontStyle=1;align=center;verticalAlign=top;childLayout=stackLayout;horizontal=1;startSize=26;horizontalStack=0;resizeParent=1;resizeParentMax=0;resizeLast=0;collapsible=1;marginBottom=0;whiteSpace=wrap;html=1;" vertex="1" parent="1">
          <mxGeometry x="540" y="280" width="160" height="86" as="geometry" />
        </mxCell>
        <mxCell id="ZrhF_78FV9TcK1DXN0-2-10" value="+ field: type" style="text;strokeColor=none;fillColor=none;align=left;verticalAlign=top;spacingLeft=4;spacingRight=4;overflow=hidden;rotatable=0;points=[[0,0.5],[1,0.5]];portConstraint=eastwest;whiteSpace=wrap;html=1;" vertex="1" parent="ZrhF_78FV9TcK1DXN0-2-9">
          <mxGeometry y="26" width="160" height="26" as="geometry" />
        </mxCell>
        <mxCell id="ZrhF_78FV9TcK1DXN0-2-11" value="" style="line;strokeWidth=1;fillColor=none;align=left;verticalAlign=middle;spacingTop=-1;spacingLeft=3;spacingRight=3;rotatable=0;labelPosition=right;points=[];portConstraint=eastwest;strokeColor=inherit;" vertex="1" parent="ZrhF_78FV9TcK1DXN0-2-9">
          <mxGeometry y="52" width="160" height="8" as="geometry" />
        </mxCell>
        <mxCell id="ZrhF_78FV9TcK1DXN0-2-12" value="+ method(type): type" style="text;strokeColor=none;fillColor=none;align=left;verticalAlign=top;spacingLeft=4;spacingRight=4;overflow=hidden;rotatable=0;points=[[0,0.5],[1,0.5]];portConstraint=eastwest;whiteSpace=wrap;html=1;" vertex="1" parent="ZrhF_78FV9TcK1DXN0-2-9">
          <mxGeometry y="60" width="160" height="26" as="geometry" />
        </mxCell>
        <mxCell id="ZrhF_78FV9TcK1DXN0-2-13" value="Jugador" style="swimlane;fontStyle=1;align=center;verticalAlign=top;childLayout=stackLayout;horizontal=1;startSize=26;horizontalStack=0;resizeParent=1;resizeParentMax=0;resizeLast=0;collapsible=1;marginBottom=0;whiteSpace=wrap;html=1;" vertex="1" parent="1">
          <mxGeometry x="20" y="204" width="160" height="86" as="geometry" />
        </mxCell>
        <mxCell id="ZrhF_78FV9TcK1DXN0-2-14" value="+ field: type" style="text;strokeColor=none;fillColor=none;align=left;verticalAlign=top;spacingLeft=4;spacingRight=4;overflow=hidden;rotatable=0;points=[[0,0.5],[1,0.5]];portConstraint=eastwest;whiteSpace=wrap;html=1;" vertex="1" parent="ZrhF_78FV9TcK1DXN0-2-13">
          <mxGeometry y="26" width="160" height="26" as="geometry" />
        </mxCell>
        <mxCell id="ZrhF_78FV9TcK1DXN0-2-15" value="" style="line;strokeWidth=1;fillColor=none;align=left;verticalAlign=middle;spacingTop=-1;spacingLeft=3;spacingRight=3;rotatable=0;labelPosition=right;points=[];portConstraint=eastwest;strokeColor=inherit;" vertex="1" parent="ZrhF_78FV9TcK1DXN0-2-13">
          <mxGeometry y="52" width="160" height="8" as="geometry" />
        </mxCell>
        <mxCell id="ZrhF_78FV9TcK1DXN0-2-16" value="+ method(type): type" style="text;strokeColor=none;fillColor=none;align=left;verticalAlign=top;spacingLeft=4;spacingRight=4;overflow=hidden;rotatable=0;points=[[0,0.5],[1,0.5]];portConstraint=eastwest;whiteSpace=wrap;html=1;" vertex="1" parent="ZrhF_78FV9TcK1DXN0-2-13">
          <mxGeometry y="60" width="160" height="26" as="geometry" />
        </mxCell>
        <mxCell id="ZrhF_78FV9TcK1DXN0-2-17" value="Historial" style="swimlane;fontStyle=1;align=center;verticalAlign=top;childLayout=stackLayout;horizontal=1;startSize=26;horizontalStack=0;resizeParent=1;resizeParentMax=0;resizeLast=0;collapsible=1;marginBottom=0;whiteSpace=wrap;html=1;" vertex="1" parent="1">
          <mxGeometry x="-90" y="320" width="160" height="86" as="geometry" />
        </mxCell>
        <mxCell id="ZrhF_78FV9TcK1DXN0-2-18" value="+ field: type" style="text;strokeColor=none;fillColor=none;align=left;verticalAlign=top;spacingLeft=4;spacingRight=4;overflow=hidden;rotatable=0;points=[[0,0.5],[1,0.5]];portConstraint=eastwest;whiteSpace=wrap;html=1;" vertex="1" parent="ZrhF_78FV9TcK1DXN0-2-17">
          <mxGeometry y="26" width="160" height="26" as="geometry" />
        </mxCell>
        <mxCell id="ZrhF_78FV9TcK1DXN0-2-19" value="" style="line;strokeWidth=1;fillColor=none;align=left;verticalAlign=middle;spacingTop=-1;spacingLeft=3;spacingRight=3;rotatable=0;labelPosition=right;points=[];portConstraint=eastwest;strokeColor=inherit;" vertex="1" parent="ZrhF_78FV9TcK1DXN0-2-17">
          <mxGeometry y="52" width="160" height="8" as="geometry" />
        </mxCell>
        <mxCell id="ZrhF_78FV9TcK1DXN0-2-20" value="+ method(type): type" style="text;strokeColor=none;fillColor=none;align=left;verticalAlign=top;spacingLeft=4;spacingRight=4;overflow=hidden;rotatable=0;points=[[0,0.5],[1,0.5]];portConstraint=eastwest;whiteSpace=wrap;html=1;" vertex="1" parent="ZrhF_78FV9TcK1DXN0-2-17">
          <mxGeometry y="60" width="160" height="26" as="geometry" />
        </mxCell>
        <mxCell id="ZrhF_78FV9TcK1DXN0-2-21" value="Tierra" style="swimlane;fontStyle=1;align=center;verticalAlign=top;childLayout=stackLayout;horizontal=1;startSize=26;horizontalStack=0;resizeParent=1;resizeParentMax=0;resizeLast=0;collapsible=1;marginBottom=0;whiteSpace=wrap;html=1;" vertex="1" parent="1">
          <mxGeometry x="350" y="460" width="160" height="86" as="geometry" />
        </mxCell>
        <mxCell id="ZrhF_78FV9TcK1DXN0-2-22" value="+ field: type" style="text;strokeColor=none;fillColor=none;align=left;verticalAlign=top;spacingLeft=4;spacingRight=4;overflow=hidden;rotatable=0;points=[[0,0.5],[1,0.5]];portConstraint=eastwest;whiteSpace=wrap;html=1;" vertex="1" parent="ZrhF_78FV9TcK1DXN0-2-21">
          <mxGeometry y="26" width="160" height="26" as="geometry" />
        </mxCell>
        <mxCell id="ZrhF_78FV9TcK1DXN0-2-23" value="" style="line;strokeWidth=1;fillColor=none;align=left;verticalAlign=middle;spacingTop=-1;spacingLeft=3;spacingRight=3;rotatable=0;labelPosition=right;points=[];portConstraint=eastwest;strokeColor=inherit;" vertex="1" parent="ZrhF_78FV9TcK1DXN0-2-21">
          <mxGeometry y="52" width="160" height="8" as="geometry" />
        </mxCell>
        <mxCell id="ZrhF_78FV9TcK1DXN0-2-24" value="+ method(type): type" style="text;strokeColor=none;fillColor=none;align=left;verticalAlign=top;spacingLeft=4;spacingRight=4;overflow=hidden;rotatable=0;points=[[0,0.5],[1,0.5]];portConstraint=eastwest;whiteSpace=wrap;html=1;" vertex="1" parent="ZrhF_78FV9TcK1DXN0-2-21">
          <mxGeometry y="60" width="160" height="26" as="geometry" />
        </mxCell>
        <mxCell id="ZrhF_78FV9TcK1DXN0-2-25" value="Agua" style="swimlane;fontStyle=1;align=center;verticalAlign=top;childLayout=stackLayout;horizontal=1;startSize=26;horizontalStack=0;resizeParent=1;resizeParentMax=0;resizeLast=0;collapsible=1;marginBottom=0;whiteSpace=wrap;html=1;" vertex="1" parent="1">
          <mxGeometry x="730" y="460" width="160" height="86" as="geometry" />
        </mxCell>
        <mxCell id="ZrhF_78FV9TcK1DXN0-2-26" value="+ field: type" style="text;strokeColor=none;fillColor=none;align=left;verticalAlign=top;spacingLeft=4;spacingRight=4;overflow=hidden;rotatable=0;points=[[0,0.5],[1,0.5]];portConstraint=eastwest;whiteSpace=wrap;html=1;" vertex="1" parent="ZrhF_78FV9TcK1DXN0-2-25">
          <mxGeometry y="26" width="160" height="26" as="geometry" />
        </mxCell>
        <mxCell id="ZrhF_78FV9TcK1DXN0-2-27" value="" style="line;strokeWidth=1;fillColor=none;align=left;verticalAlign=middle;spacingTop=-1;spacingLeft=3;spacingRight=3;rotatable=0;labelPosition=right;points=[];portConstraint=eastwest;strokeColor=inherit;" vertex="1" parent="ZrhF_78FV9TcK1DXN0-2-25">
          <mxGeometry y="52" width="160" height="8" as="geometry" />
        </mxCell>
        <mxCell id="ZrhF_78FV9TcK1DXN0-2-28" value="+ method(type): type" style="text;strokeColor=none;fillColor=none;align=left;verticalAlign=top;spacingLeft=4;spacingRight=4;overflow=hidden;rotatable=0;points=[[0,0.5],[1,0.5]];portConstraint=eastwest;whiteSpace=wrap;html=1;" vertex="1" parent="ZrhF_78FV9TcK1DXN0-2-25">
          <mxGeometry y="60" width="160" height="26" as="geometry" />
        </mxCell>
        <mxCell id="ZrhF_78FV9TcK1DXN0-2-29" value="MontaÃ±a" style="swimlane;fontStyle=1;align=center;verticalAlign=top;childLayout=stackLayout;horizontal=1;startSize=26;horizontalStack=0;resizeParent=1;resizeParentMax=0;resizeLast=0;collapsible=1;marginBottom=0;whiteSpace=wrap;html=1;" vertex="1" parent="1">
          <mxGeometry x="530" y="480" width="160" height="86" as="geometry" />
        </mxCell>
        <mxCell id="ZrhF_78FV9TcK1DXN0-2-30" value="+ field: type" style="text;strokeColor=none;fillColor=none;align=left;verticalAlign=top;spacingLeft=4;spacingRight=4;overflow=hidden;rotatable=0;points=[[0,0.5],[1,0.5]];portConstraint=eastwest;whiteSpace=wrap;html=1;" vertex="1" parent="ZrhF_78FV9TcK1DXN0-2-29">
          <mxGeometry y="26" width="160" height="26" as="geometry" />
        </mxCell>
        <mxCell id="ZrhF_78FV9TcK1DXN0-2-31" value="" style="line;strokeWidth=1;fillColor=none;align=left;verticalAlign=middle;spacingTop=-1;spacingLeft=3;spacingRight=3;rotatable=0;labelPosition=right;points=[];portConstraint=eastwest;strokeColor=inherit;" vertex="1" parent="ZrhF_78FV9TcK1DXN0-2-29">
          <mxGeometry y="52" width="160" height="8" as="geometry" />
        </mxCell>
        <mxCell id="ZrhF_78FV9TcK1DXN0-2-32" value="+ method(type): type" style="text;strokeColor=none;fillColor=none;align=left;verticalAlign=top;spacingLeft=4;spacingRight=4;overflow=hidden;rotatable=0;points=[[0,0.5],[1,0.5]];portConstraint=eastwest;whiteSpace=wrap;html=1;" vertex="1" parent="ZrhF_78FV9TcK1DXN0-2-29">
          <mxGeometry y="60" width="160" height="26" as="geometry" />
        </mxCell>
        <mxCell id="ZrhF_78FV9TcK1DXN0-2-34" value="1" style="endArrow=open;html=1;endSize=12;startArrow=diamondThin;startSize=14;startFill=1;edgeStyle=orthogonalEdgeStyle;align=left;verticalAlign=bottom;rounded=0;exitX=-0.035;exitY=0.373;exitDx=0;exitDy=0;exitPerimeter=0;" edge="1" parent="1" source="ZrhF_78FV9TcK1DXN0-2-16" target="ZrhF_78FV9TcK1DXN0-2-17">
          <mxGeometry x="-1" y="3" relative="1" as="geometry">
            <mxPoint x="-270" y="270" as="sourcePoint" />
            <mxPoint x="-110" y="270" as="targetPoint" />
          </mxGeometry>
        </mxCell>
        <mxCell id="ZrhF_78FV9TcK1DXN0-2-35" value="1" style="endArrow=open;html=1;endSize=12;startArrow=diamondThin;startSize=14;startFill=0;edgeStyle=orthogonalEdgeStyle;align=left;verticalAlign=bottom;rounded=0;exitX=-0.02;exitY=0.459;exitDx=0;exitDy=0;exitPerimeter=0;" edge="1" parent="1" source="ZrhF_78FV9TcK1DXN0-2-2" target="ZrhF_78FV9TcK1DXN0-2-13">
          <mxGeometry x="-1" y="3" relative="1" as="geometry">
            <mxPoint x="-80" y="140" as="sourcePoint" />
            <mxPoint x="80" y="140" as="targetPoint" />
          </mxGeometry>
        </mxCell>
        <mxCell id="ZrhF_78FV9TcK1DXN0-2-36" value="Extends" style="endArrow=block;endSize=16;endFill=0;html=1;rounded=0;entryX=-0.011;entryY=0.923;entryDx=0;entryDy=0;entryPerimeter=0;exitX=0.5;exitY=0;exitDx=0;exitDy=0;" edge="1" parent="1" source="ZrhF_78FV9TcK1DXN0-2-21" target="ZrhF_78FV9TcK1DXN0-2-12">
          <mxGeometry width="160" relative="1" as="geometry">
            <mxPoint x="380" y="410" as="sourcePoint" />
            <mxPoint x="540" y="410" as="targetPoint" />
          </mxGeometry>
        </mxCell>
        <mxCell id="ZrhF_78FV9TcK1DXN0-2-37" value="Extends" style="endArrow=block;endSize=16;endFill=0;html=1;rounded=0;entryX=0.442;entryY=1.163;entryDx=0;entryDy=0;entryPerimeter=0;exitX=0.5;exitY=0;exitDx=0;exitDy=0;" edge="1" parent="1" source="ZrhF_78FV9TcK1DXN0-2-29" target="ZrhF_78FV9TcK1DXN0-2-12">
          <mxGeometry width="160" relative="1" as="geometry">
            <mxPoint x="460" y="590" as="sourcePoint" />
            <mxPoint x="620" y="590" as="targetPoint" />
          </mxGeometry>
        </mxCell>
        <mxCell id="ZrhF_78FV9TcK1DXN0-2-38" value="Extends" style="endArrow=block;endSize=16;endFill=0;html=1;rounded=0;entryX=0.981;entryY=1.115;entryDx=0;entryDy=0;entryPerimeter=0;exitX=0.5;exitY=0;exitDx=0;exitDy=0;" edge="1" parent="1" source="ZrhF_78FV9TcK1DXN0-2-25" target="ZrhF_78FV9TcK1DXN0-2-12">
          <mxGeometry width="160" relative="1" as="geometry">
            <mxPoint x="400" y="630" as="sourcePoint" />
            <mxPoint x="560" y="630" as="targetPoint" />
          </mxGeometry>
        </mxCell>
        <mxCell id="ZrhF_78FV9TcK1DXN0-2-39" value="1" style="endArrow=open;html=1;endSize=12;startArrow=diamondThin;startSize=14;startFill=1;edgeStyle=orthogonalEdgeStyle;align=left;verticalAlign=bottom;rounded=0;entryX=0.473;entryY=0.012;entryDx=0;entryDy=0;entryPerimeter=0;" edge="1" parent="1" target="ZrhF_78FV9TcK1DXN0-2-5">
          <mxGeometry x="-1" y="3" relative="1" as="geometry">
            <mxPoint x="70" y="340" as="sourcePoint" />
            <mxPoint x="230" y="340" as="targetPoint" />
          </mxGeometry>
        </mxCell>
        <mxCell id="ZrhF_78FV9TcK1DXN0-2-40" value="1" style="endArrow=open;html=1;endSize=12;startArrow=diamondThin;startSize=14;startFill=1;edgeStyle=orthogonalEdgeStyle;align=left;verticalAlign=bottom;rounded=0;entryX=0.5;entryY=0;entryDx=0;entryDy=0;exitX=1;exitY=0.5;exitDx=0;exitDy=0;" edge="1" parent="1" source="ZrhF_78FV9TcK1DXN0-2-4" target="ZrhF_78FV9TcK1DXN0-2-9">
          <mxGeometry x="-1" y="3" relative="1" as="geometry">
            <mxPoint x="450" y="211" as="sourcePoint" />
            <mxPoint x="560" y="230" as="targetPoint" />
            <Array as="points">
              <mxPoint x="480" y="211" />
              <mxPoint x="620" y="210" />
            </Array>
          </mxGeometry>
        </mxCell>
        <mxCell id="ja72YesgZ6b7BZ67OYSp-41" value="Tablero" style="swimlane;fontStyle=2;align=center;verticalAlign=top;childLayout=stackLayout;horizontal=1;startSize=26;horizontalStack=0;resizeParent=1;resizeLast=0;collapsible=1;marginBottom=0;rounded=0;shadow=0;strokeWidth=1;" vertex="1" parent="1">
          <mxGeometry x="1080" y="80" width="160" height="110" as="geometry">
            <mxRectangle x="230" y="140" width="160" height="26" as="alternateBounds" />
          </mxGeometry>
        </mxCell>
        <mxCell id="ja72YesgZ6b7BZ67OYSp-42" value="- grilla: int[N][M]" style="text;align=left;verticalAlign=top;spacingLeft=4;spacingRight=4;overflow=hidden;rotatable=0;points=[[0,0.5],[1,0.5]];portConstraint=eastwest;" vertex="1" parent="ja72YesgZ6b7BZ67OYSp-41">
          <mxGeometry y="26" width="160" height="34" as="geometry" />
        </mxCell>
        <mxCell id="ja72YesgZ6b7BZ67OYSp-43" value="" style="line;html=1;strokeWidth=1;align=left;verticalAlign=middle;spacingTop=-1;spacingLeft=3;spacingRight=3;rotatable=0;labelPosition=right;points=[];portConstraint=eastwest;" vertex="1" parent="ja72YesgZ6b7BZ67OYSp-41">
          <mxGeometry y="60" width="160" height="8" as="geometry" />
        </mxCell>
        <mxCell id="ja72YesgZ6b7BZ67OYSp-44" value="Â iniciar()&#xa;Â opcionMenorCosto()&#xa;" style="text;align=left;verticalAlign=top;spacingLeft=4;spacingRight=4;overflow=hidden;rotatable=0;points=[[0,0.5],[1,0.5]];portConstraint=eastwest;" vertex="1" parent="ja72YesgZ6b7BZ67OYSp-41">
          <mxGeometry y="68" width="160" height="42" as="geometry" />
        </mxCell>
        <mxCell id="ja72YesgZ6b7BZ67OYSp-45" value="AgenteOpcionCosto" style="swimlane;fontStyle=0;align=center;verticalAlign=top;childLayout=stackLayout;horizontal=1;startSize=26;horizontalStack=0;resizeParent=1;resizeLast=0;collapsible=1;marginBottom=0;rounded=0;shadow=0;strokeWidth=1;" vertex="1" parent="1">
          <mxGeometry x="970" y="380" width="160" height="138" as="geometry">
            <mxRectangle x="130" y="380" width="160" height="26" as="alternateBounds" />
          </mxGeometry>
        </mxCell>
        <mxCell id="ja72YesgZ6b7BZ67OYSp-46" value="- avanzar: int" style="text;align=left;verticalAlign=top;spacingLeft=4;spacingRight=4;overflow=hidden;rotatable=0;points=[[0,0.5],[1,0.5]];portConstraint=eastwest;" vertex="1" parent="ja72YesgZ6b7BZ67OYSp-45">
          <mxGeometry y="26" width="160" height="26" as="geometry" />
        </mxCell>
        <mxCell id="ja72YesgZ6b7BZ67OYSp-47" value="" style="line;html=1;strokeWidth=1;align=left;verticalAlign=middle;spacingTop=-1;spacingLeft=3;spacingRight=3;rotatable=0;labelPosition=right;points=[];portConstraint=eastwest;" vertex="1" parent="ja72YesgZ6b7BZ67OYSp-45">
          <mxGeometry y="52" width="160" height="8" as="geometry" />
        </mxCell>
        <mxCell id="ja72YesgZ6b7BZ67OYSp-48" value="+ camino():int[N][M]" style="text;align=left;verticalAlign=top;spacingLeft=4;spacingRight=4;overflow=hidden;rotatable=0;points=[[0,0.5],[1,0.5]];portConstraint=eastwest;fontStyle=0" vertex="1" parent="ja72YesgZ6b7BZ67OYSp-45">
          <mxGeometry y="60" width="160" height="26" as="geometry" />
        </mxCell>
        <mxCell id="ja72YesgZ6b7BZ67OYSp-49" value="" style="endArrow=block;endSize=10;endFill=0;shadow=0;strokeWidth=1;rounded=0;edgeStyle=elbowEdgeStyle;elbow=vertical;" edge="1" parent="1" source="ja72YesgZ6b7BZ67OYSp-45" target="ja72YesgZ6b7BZ67OYSp-41">
          <mxGeometry width="160" relative="1" as="geometry">
            <mxPoint x="1060" y="163" as="sourcePoint" />
            <mxPoint x="1060" y="163" as="targetPoint" />
          </mxGeometry>
        </mxCell>
        <mxCell id="ja72YesgZ6b7BZ67OYSp-50" value="Agente" style="swimlane;fontStyle=2;align=center;verticalAlign=top;childLayout=stackLayout;horizontal=1;startSize=26;horizontalStack=0;resizeParent=1;resizeLast=0;collapsible=1;marginBottom=0;rounded=0;shadow=0;strokeWidth=1;" vertex="1" parent="1">
          <mxGeometry x="1460" y="190" width="160" height="138" as="geometry">
            <mxRectangle x="230" y="140" width="160" height="26" as="alternateBounds" />
          </mxGeometry>
        </mxCell>
        <mxCell id="ja72YesgZ6b7BZ67OYSp-51" value="- posicion:int&#xa;- esTazaCafe:boolean" style="text;align=left;verticalAlign=top;spacingLeft=4;spacingRight=4;overflow=hidden;rotatable=0;points=[[0,0.5],[1,0.5]];portConstraint=eastwest;" vertex="1" parent="ja72YesgZ6b7BZ67OYSp-50">
          <mxGeometry y="26" width="160" height="44" as="geometry" />
        </mxCell>
        <mxCell id="ja72YesgZ6b7BZ67OYSp-52" value="" style="line;html=1;strokeWidth=1;align=left;verticalAlign=middle;spacingTop=-1;spacingLeft=3;spacingRight=3;rotatable=0;labelPosition=right;points=[];portConstraint=eastwest;" vertex="1" parent="ja72YesgZ6b7BZ67OYSp-50">
          <mxGeometry y="70" width="160" height="8" as="geometry" />
        </mxCell>
        <mxCell id="ja72YesgZ6b7BZ67OYSp-53" value="- avanzar(int)&#xa;- esTierra(boolean)&#xa;- esTazaDeCafe():boolean" style="text;align=left;verticalAlign=top;spacingLeft=4;spacingRight=4;overflow=hidden;rotatable=0;points=[[0,0.5],[1,0.5]];portConstraint=eastwest;" vertex="1" parent="ja72YesgZ6b7BZ67OYSp-50">
          <mxGeometry y="78" width="160" height="52" as="geometry" />
        </mxCell>
        <mxCell id="ja72YesgZ6b7BZ67OYSp-54" value="Agente" style="endArrow=open;html=1;endSize=12;startArrow=diamondThin;startSize=14;startFill=0;edgeStyle=orthogonalEdgeStyle;align=left;verticalAlign=bottom;rounded=0;exitX=1;exitY=0.5;exitDx=0;exitDy=0;entryX=-0.025;entryY=0.759;entryDx=0;entryDy=0;entryPerimeter=0;" edge="1" parent="1" source="ja72YesgZ6b7BZ67OYSp-42" target="ja72YesgZ6b7BZ67OYSp-51">
          <mxGeometry x="-1" y="3" relative="1" as="geometry">
            <mxPoint x="1270" y="-10" as="sourcePoint" />
            <mxPoint x="1430" y="-10" as="targetPoint" />
          </mxGeometry>
        </mxCell>
        <mxCell id="ja72YesgZ6b7BZ67OYSp-55" value="1" style="edgeLabel;html=1;align=center;verticalAlign=middle;resizable=0;points=[];" connectable="0" vertex="1" parent="ja72YesgZ6b7BZ67OYSp-54">
          <mxGeometry x="0.6813" y="-5" relative="1" as="geometry">
            <mxPoint x="18" y="-24" as="offset" />
          </mxGeometry>
        </mxCell>
        <mxCell id="ja72YesgZ6b7BZ67OYSp-56" value="MontaÃ±a" style="swimlane;fontStyle=2;align=center;verticalAlign=top;childLayout=stackLayout;horizontal=1;startSize=26;horizontalStack=0;resizeParent=1;resizeLast=0;collapsible=1;marginBottom=0;rounded=0;shadow=0;strokeWidth=1;" vertex="1" parent="1">
          <mxGeometry x="1850" y="148" width="160" height="110" as="geometry">
            <mxRectangle x="230" y="140" width="160" height="26" as="alternateBounds" />
          </mxGeometry>
        </mxCell>
        <mxCell id="ja72YesgZ6b7BZ67OYSp-57" value="" style="line;html=1;strokeWidth=1;align=left;verticalAlign=middle;spacingTop=-1;spacingLeft=3;spacingRight=3;rotatable=0;labelPosition=right;points=[];portConstraint=eastwest;" vertex="1" parent="ja72YesgZ6b7BZ67OYSp-56">
          <mxGeometry y="26" width="160" height="8" as="geometry" />
        </mxCell>
        <mxCell id="ja72YesgZ6b7BZ67OYSp-58" value="-" style="text;align=left;verticalAlign=top;spacingLeft=4;spacingRight=4;overflow=hidden;rotatable=0;points=[[0,0.5],[1,0.5]];portConstraint=eastwest;" vertex="1" parent="ja72YesgZ6b7BZ67OYSp-56">
          <mxGeometry y="34" width="160" height="52" as="geometry" />
        </mxCell>
        <mxCell id="ja72YesgZ6b7BZ67OYSp-59" value="Tierra" style="swimlane;fontStyle=2;align=center;verticalAlign=top;childLayout=stackLayout;horizontal=1;startSize=26;horizontalStack=0;resizeParent=1;resizeLast=0;collapsible=1;marginBottom=0;rounded=0;shadow=0;strokeWidth=1;" vertex="1" parent="1">
          <mxGeometry x="1670" y="148" width="160" height="86" as="geometry">
            <mxRectangle x="230" y="140" width="160" height="26" as="alternateBounds" />
          </mxGeometry>
        </mxCell>
        <mxCell id="ja72YesgZ6b7BZ67OYSp-60" value="" style="line;html=1;strokeWidth=1;align=left;verticalAlign=middle;spacingTop=-1;spacingLeft=3;spacingRight=3;rotatable=0;labelPosition=right;points=[];portConstraint=eastwest;" vertex="1" parent="ja72YesgZ6b7BZ67OYSp-59">
          <mxGeometry y="26" width="160" height="8" as="geometry" />
        </mxCell>
        <mxCell id="ja72YesgZ6b7BZ67OYSp-61" value="-" style="text;align=left;verticalAlign=top;spacingLeft=4;spacingRight=4;overflow=hidden;rotatable=0;points=[[0,0.5],[1,0.5]];portConstraint=eastwest;" vertex="1" parent="ja72YesgZ6b7BZ67OYSp-59">
          <mxGeometry y="34" width="160" height="52" as="geometry" />
        </mxCell>
        <mxCell id="ja72YesgZ6b7BZ67OYSp-62" value="Cafe" style="swimlane;fontStyle=2;align=center;verticalAlign=top;childLayout=stackLayout;horizontal=1;startSize=26;horizontalStack=0;resizeParent=1;resizeLast=0;collapsible=1;marginBottom=0;rounded=0;shadow=0;strokeWidth=1;" vertex="1" parent="1">
          <mxGeometry x="1160" y="380" width="160" height="110" as="geometry">
            <mxRectangle x="230" y="140" width="160" height="26" as="alternateBounds" />
          </mxGeometry>
        </mxCell>
        <mxCell id="ja72YesgZ6b7BZ67OYSp-63" value="- posicion:int" style="text;align=left;verticalAlign=top;spacingLeft=4;spacingRight=4;overflow=hidden;rotatable=0;points=[[0,0.5],[1,0.5]];portConstraint=eastwest;" vertex="1" parent="ja72YesgZ6b7BZ67OYSp-62">
          <mxGeometry y="26" width="160" height="24" as="geometry" />
        </mxCell>
        <mxCell id="ja72YesgZ6b7BZ67OYSp-64" value="" style="line;html=1;strokeWidth=1;align=left;verticalAlign=middle;spacingTop=-1;spacingLeft=3;spacingRight=3;rotatable=0;labelPosition=right;points=[];portConstraint=eastwest;" vertex="1" parent="ja72YesgZ6b7BZ67OYSp-62">
          <mxGeometry y="50" width="160" height="8" as="geometry" />
        </mxCell>
        <mxCell id="ja72YesgZ6b7BZ67OYSp-65" value="-Â " style="text;align=left;verticalAlign=top;spacingLeft=4;spacingRight=4;overflow=hidden;rotatable=0;points=[[0,0.5],[1,0.5]];portConstraint=eastwest;" vertex="1" parent="ja72YesgZ6b7BZ67OYSp-62">
          <mxGeometry y="58" width="160" height="52" as="geometry" />
        </mxCell>
        <mxCell id="ja72YesgZ6b7BZ67OYSp-66" value="Agua" style="swimlane;fontStyle=2;align=center;verticalAlign=top;childLayout=stackLayout;horizontal=1;startSize=26;horizontalStack=0;resizeParent=1;resizeLast=0;collapsible=1;marginBottom=0;rounded=0;shadow=0;strokeWidth=1;" vertex="1" parent="1">
          <mxGeometry x="2040" y="148" width="160" height="110" as="geometry">
            <mxRectangle x="230" y="140" width="160" height="26" as="alternateBounds" />
          </mxGeometry>
        </mxCell>
        <mxCell id="ja72YesgZ6b7BZ67OYSp-67" value="" style="line;html=1;strokeWidth=1;align=left;verticalAlign=middle;spacingTop=-1;spacingLeft=3;spacingRight=3;rotatable=0;labelPosition=right;points=[];portConstraint=eastwest;" vertex="1" parent="ja72YesgZ6b7BZ67OYSp-66">
          <mxGeometry y="26" width="160" height="8" as="geometry" />
        </mxCell>
        <mxCell id="ja72YesgZ6b7BZ67OYSp-68" value="-Â " style="text;align=left;verticalAlign=top;spacingLeft=4;spacingRight=4;overflow=hidden;rotatable=0;points=[[0,0.5],[1,0.5]];portConstraint=eastwest;" vertex="1" parent="ja72YesgZ6b7BZ67OYSp-66">
          <mxGeometry y="34" width="160" height="52" as="geometry" />
        </mxCell>
        <mxCell id="ja72YesgZ6b7BZ67OYSp-69" value="Cafe" style="endArrow=open;html=1;endSize=12;startArrow=diamondThin;startSize=14;startFill=0;edgeStyle=orthogonalEdgeStyle;align=left;verticalAlign=bottom;rounded=0;exitX=0.686;exitY=1;exitDx=0;exitDy=0;exitPerimeter=0;" edge="1" parent="1" source="ja72YesgZ6b7BZ67OYSp-44">
          <mxGeometry x="-0.6601" y="10" relative="1" as="geometry">
            <mxPoint x="1190" y="200" as="sourcePoint" />
            <mxPoint x="1224" y="380" as="targetPoint" />
            <Array as="points">
              <mxPoint x="1190" y="230" />
              <mxPoint x="1224" y="230" />
            </Array>
            <mxPoint as="offset" />
          </mxGeometry>
        </mxCell>
        <mxCell id="ja72YesgZ6b7BZ67OYSp-70" value="1" style="edgeLabel;html=1;align=center;verticalAlign=middle;resizable=0;points=[];" connectable="0" vertex="1" parent="ja72YesgZ6b7BZ67OYSp-69">
          <mxGeometry x="0.6813" y="-5" relative="1" as="geometry">
            <mxPoint x="21" y="6" as="offset" />
          </mxGeometry>
        </mxCell>
        <mxCell id="ja72YesgZ6b7BZ67OYSp-71" value="" style="endArrow=open;html=1;endSize=12;startArrow=diamondThin;startSize=14;startFill=0;edgeStyle=orthogonalEdgeStyle;align=left;verticalAlign=bottom;rounded=0;exitX=0.75;exitY=0;exitDx=0;exitDy=0;entryX=0.003;entryY=0.144;entryDx=0;entryDy=0;entryPerimeter=0;" edge="1" parent="1" source="ja72YesgZ6b7BZ67OYSp-41" target="ja72YesgZ6b7BZ67OYSp-74">
          <mxGeometry x="-1" y="3" relative="1" as="geometry">
            <mxPoint x="1240" y="90" as="sourcePoint" />
            <mxPoint x="1480" y="50" as="targetPoint" />
            <Array as="points">
              <mxPoint x="1200" y="50" />
              <mxPoint x="1480" y="50" />
              <mxPoint x="1480" y="12" />
            </Array>
          </mxGeometry>
        </mxCell>
        <mxCell id="ja72YesgZ6b7BZ67OYSp-72" value="celdas&lt;br&gt;" style="edgeLabel;html=1;align=center;verticalAlign=middle;resizable=0;points=[];" connectable="0" vertex="1" parent="ja72YesgZ6b7BZ67OYSp-71">
          <mxGeometry x="-0.9164" y="1" relative="1" as="geometry">
            <mxPoint x="21" y="-13" as="offset" />
          </mxGeometry>
        </mxCell>
        <mxCell id="ja72YesgZ6b7BZ67OYSp-73" value="N" style="edgeLabel;html=1;align=center;verticalAlign=middle;resizable=0;points=[];" connectable="0" vertex="1" parent="ja72YesgZ6b7BZ67OYSp-71">
          <mxGeometry x="0.7213" relative="1" as="geometry">
            <mxPoint x="13" y="-10" as="offset" />
          </mxGeometry>
        </mxCell>
        <mxCell id="ja72YesgZ6b7BZ67OYSp-74" value="Celda" style="swimlane;fontStyle=1;align=center;verticalAlign=top;childLayout=stackLayout;horizontal=1;startSize=26;horizontalStack=0;resizeParent=1;resizeParentMax=0;resizeLast=0;collapsible=1;marginBottom=0;whiteSpace=wrap;html=1;" vertex="1" parent="1">
          <mxGeometry x="1780" width="160" height="86" as="geometry" />
        </mxCell>
        <mxCell id="ja72YesgZ6b7BZ67OYSp-75" value="+ posicion:int" style="text;strokeColor=none;fillColor=none;align=left;verticalAlign=top;spacingLeft=4;spacingRight=4;overflow=hidden;rotatable=0;points=[[0,0.5],[1,0.5]];portConstraint=eastwest;whiteSpace=wrap;html=1;" vertex="1" parent="ja72YesgZ6b7BZ67OYSp-74">
          <mxGeometry y="26" width="160" height="26" as="geometry" />
        </mxCell>
        <mxCell id="ja72YesgZ6b7BZ67OYSp-76" value="" style="line;strokeWidth=1;fillColor=none;align=left;verticalAlign=middle;spacingTop=-1;spacingLeft=3;spacingRight=3;rotatable=0;labelPosition=right;points=[];portConstraint=eastwest;strokeColor=inherit;" vertex="1" parent="ja72YesgZ6b7BZ67OYSp-74">
          <mxGeometry y="52" width="160" height="8" as="geometry" />
        </mxCell>
        <mxCell id="ja72YesgZ6b7BZ67OYSp-77" value="-" style="text;strokeColor=none;fillColor=none;align=left;verticalAlign=top;spacingLeft=4;spacingRight=4;overflow=hidden;rotatable=0;points=[[0,0.5],[1,0.5]];portConstraint=eastwest;whiteSpace=wrap;html=1;" vertex="1" parent="ja72YesgZ6b7BZ67OYSp-74">
          <mxGeometry y="60" width="160" height="26" as="geometry" />
        </mxCell>
        <mxCell id="ja72YesgZ6b7BZ67OYSp-78" value="" style="endArrow=block;endSize=16;endFill=0;html=1;rounded=0;entryX=0;entryY=0.5;entryDx=0;entryDy=0;exitX=0.25;exitY=0;exitDx=0;exitDy=0;" edge="1" parent="1" source="ja72YesgZ6b7BZ67OYSp-59" target="ja72YesgZ6b7BZ67OYSp-77">
          <mxGeometry width="160" relative="1" as="geometry">
            <mxPoint x="1690" y="350" as="sourcePoint" />
            <mxPoint x="1850" y="350" as="targetPoint" />
          </mxGeometry>
        </mxCell>
        <mxCell id="ja72YesgZ6b7BZ67OYSp-79" value="" style="endArrow=block;endSize=16;endFill=0;html=1;rounded=0;entryX=0.503;entryY=1.062;entryDx=0;entryDy=0;entryPerimeter=0;exitX=0.25;exitY=0;exitDx=0;exitDy=0;" edge="1" parent="1" source="ja72YesgZ6b7BZ67OYSp-56" target="ja72YesgZ6b7BZ67OYSp-77">
          <mxGeometry width="160" relative="1" as="geometry">
            <mxPoint x="1860" y="310" as="sourcePoint" />
            <mxPoint x="2020" y="310" as="targetPoint" />
          </mxGeometry>
        </mxCell>
        <mxCell id="ja72YesgZ6b7BZ67OYSp-80" value="" style="endArrow=block;endSize=16;endFill=0;html=1;rounded=0;entryX=0.908;entryY=1.092;entryDx=0;entryDy=0;entryPerimeter=0;exitX=0.25;exitY=0;exitDx=0;exitDy=0;" edge="1" parent="1" source="ja72YesgZ6b7BZ67OYSp-66" target="ja72YesgZ6b7BZ67OYSp-77">
          <mxGeometry width="160" relative="1" as="geometry">
            <mxPoint x="1740" y="330" as="sourcePoint" />
            <mxPoint x="1900" y="330" as="targetPoint" />
          </mxGeometry>
        </mxCell>
      </root>
    </mxGraphModel>
  </diagram>
  <diagram name="TP-1" id="rLSnRg0x5J7qiLiaOYvA">
    <mxGraphModel grid="1" page="1" gridSize="10" guides="1" tooltips="1" connect="1" arrows="1" fold="1" pageScale="1" pageWidth="1200" pageHeight="800" math="0" shadow="0">
      <root>
        <mxCell id="0" />
        <mxCell id="1" parent="0" />
        <mxCell id="HpOb80Q2MdfgyHuq5dWG-1" value="Tanque" style="swimlane;fontStyle=1;align=center;verticalAlign=top;childLayout=stackLayout;horizontal=1;startSize=26;horizontalStack=0;resizeParent=1;resizeParentMax=0;resizeLast=0;collapsible=1;marginBottom=0;whiteSpace=wrap;html=1;" vertex="1" parent="1">
          <mxGeometry x="-1887" y="225" width="160" height="170" as="geometry" />
        </mxCell>
        <mxCell id="HpOb80Q2MdfgyHuq5dWG-2" value="- nombre: String;&lt;br&gt;- energia: float;&lt;br&gt;- posicion: Posicion;&lt;br&gt;- direccion: Direccion;" style="text;strokeColor=none;fillColor=none;align=left;verticalAlign=top;spacingLeft=4;spacingRight=4;overflow=hidden;rotatable=0;points=[[0,0.5],[1,0.5]];portConstraint=eastwest;whiteSpace=wrap;html=1;" vertex="1" parent="HpOb80Q2MdfgyHuq5dWG-1">
          <mxGeometry y="26" width="160" height="64" as="geometry" />
        </mxCell>
        <mxCell id="HpOb80Q2MdfgyHuq5dWG-3" value="" style="line;strokeWidth=1;fillColor=none;align=left;verticalAlign=middle;spacingTop=-1;spacingLeft=3;spacingRight=3;rotatable=0;labelPosition=right;points=[];portConstraint=eastwest;strokeColor=inherit;" vertex="1" parent="HpOb80Q2MdfgyHuq5dWG-1">
          <mxGeometry y="90" width="160" height="8" as="geometry" />
        </mxCell>
        <mxCell id="HpOb80Q2MdfgyHuq5dWG-4" value="+ reducirEnergia(float);&lt;br&gt;+ deshabilitar(energia);&lt;br&gt;+ setNombre(String);&lt;br&gt;+ getNombre(): String;" style="text;strokeColor=none;fillColor=none;align=left;verticalAlign=top;spacingLeft=4;spacingRight=4;overflow=hidden;rotatable=0;points=[[0,0.5],[1,0.5]];portConstraint=eastwest;whiteSpace=wrap;html=1;" vertex="1" parent="HpOb80Q2MdfgyHuq5dWG-1">
          <mxGeometry y="98" width="160" height="72" as="geometry" />
        </mxCell>
        <mxCell id="HpOb80Q2MdfgyHuq5dWG-5" value="Radar" style="swimlane;fontStyle=1;align=center;verticalAlign=top;childLayout=stackLayout;horizontal=1;startSize=26;horizontalStack=0;resizeParent=1;resizeParentMax=0;resizeLast=0;collapsible=1;marginBottom=0;whiteSpace=wrap;html=1;" vertex="1" parent="1">
          <mxGeometry x="-2307" y="635" width="290" height="70" as="geometry" />
        </mxCell>
        <mxCell id="HpOb80Q2MdfgyHuq5dWG-6" value="+ field: type" style="text;strokeColor=none;fillColor=none;align=left;verticalAlign=top;spacingLeft=4;spacingRight=4;overflow=hidden;rotatable=0;points=[[0,0.5],[1,0.5]];portConstraint=eastwest;whiteSpace=wrap;html=1;" vertex="1" parent="HpOb80Q2MdfgyHuq5dWG-5">
          <mxGeometry y="26" width="290" height="4" as="geometry" />
        </mxCell>
        <mxCell id="HpOb80Q2MdfgyHuq5dWG-7" value="" style="line;strokeWidth=1;fillColor=none;align=left;verticalAlign=middle;spacingTop=-1;spacingLeft=3;spacingRight=3;rotatable=0;labelPosition=right;points=[];portConstraint=eastwest;strokeColor=inherit;" vertex="1" parent="HpOb80Q2MdfgyHuq5dWG-5">
          <mxGeometry y="30" width="290" height="8" as="geometry" />
        </mxCell>
        <mxCell id="HpOb80Q2MdfgyHuq5dWG-8" value="+ detectarAlEnemigo(Direccion, Posicion): boolean;" style="text;strokeColor=none;fillColor=none;align=left;verticalAlign=top;spacingLeft=4;spacingRight=4;overflow=hidden;rotatable=0;points=[[0,0.5],[1,0.5]];portConstraint=eastwest;whiteSpace=wrap;html=1;" vertex="1" parent="HpOb80Q2MdfgyHuq5dWG-5">
          <mxGeometry y="38" width="290" height="32" as="geometry" />
        </mxCell>
        <mxCell id="HpOb80Q2MdfgyHuq5dWG-9" value="Torreta" style="swimlane;fontStyle=1;align=center;verticalAlign=top;childLayout=stackLayout;horizontal=1;startSize=26;horizontalStack=0;resizeParent=1;resizeParentMax=0;resizeLast=0;collapsible=1;marginBottom=0;whiteSpace=wrap;html=1;" vertex="1" parent="1">
          <mxGeometry x="-2107" y="495" width="185" height="100" as="geometry" />
        </mxCell>
        <mxCell id="HpOb80Q2MdfgyHuq5dWG-10" value="- disparos: int;" style="text;strokeColor=none;fillColor=none;align=left;verticalAlign=top;spacingLeft=4;spacingRight=4;overflow=hidden;rotatable=0;points=[[0,0.5],[1,0.5]];portConstraint=eastwest;whiteSpace=wrap;html=1;" vertex="1" parent="HpOb80Q2MdfgyHuq5dWG-9">
          <mxGeometry y="26" width="185" height="26" as="geometry" />
        </mxCell>
        <mxCell id="HpOb80Q2MdfgyHuq5dWG-11" value="" style="line;strokeWidth=1;fillColor=none;align=left;verticalAlign=middle;spacingTop=-1;spacingLeft=3;spacingRight=3;rotatable=0;labelPosition=right;points=[];portConstraint=eastwest;strokeColor=inherit;" vertex="1" parent="HpOb80Q2MdfgyHuq5dWG-9">
          <mxGeometry y="52" width="185" height="8" as="geometry" />
        </mxCell>
        <mxCell id="HpOb80Q2MdfgyHuq5dWG-12" value="+ setDisparos(int);&lt;br&gt;+ calentarse(disparos);" style="text;strokeColor=none;fillColor=none;align=left;verticalAlign=top;spacingLeft=4;spacingRight=4;overflow=hidden;rotatable=0;points=[[0,0.5],[1,0.5]];portConstraint=eastwest;whiteSpace=wrap;html=1;" vertex="1" parent="HpOb80Q2MdfgyHuq5dWG-9">
          <mxGeometry y="60" width="185" height="40" as="geometry" />
        </mxCell>
        <mxCell id="HpOb80Q2MdfgyHuq5dWG-13" value="" style="endArrow=open;html=1;endSize=12;startArrow=diamondThin;startSize=14;startFill=1;edgeStyle=orthogonalEdgeStyle;align=left;verticalAlign=bottom;rounded=0;entryX=0.5;entryY=0;entryDx=0;entryDy=0;exitX=0;exitY=0.5;exitDx=0;exitDy=0;movable=1;resizable=1;rotatable=1;deletable=1;editable=1;locked=0;connectable=1;" edge="1" parent="1" source="HpOb80Q2MdfgyHuq5dWG-1" target="HpOb80Q2MdfgyHuq5dWG-9">
          <mxGeometry x="-0.9115" y="-18" relative="1" as="geometry">
            <mxPoint x="-1977" y="295" as="sourcePoint" />
            <mxPoint x="-1587" y="645" as="targetPoint" />
            <mxPoint x="-1" as="offset" />
          </mxGeometry>
        </mxCell>
        <mxCell id="HpOb80Q2MdfgyHuq5dWG-14" value="Tablero" style="swimlane;fontStyle=1;align=center;verticalAlign=top;childLayout=stackLayout;horizontal=1;startSize=26;horizontalStack=0;resizeParent=1;resizeParentMax=0;resizeLast=0;collapsible=1;marginBottom=0;whiteSpace=wrap;html=1;" vertex="1" parent="1">
          <mxGeometry x="-1637" y="65" width="210" height="60" as="geometry" />
        </mxCell>
        <mxCell id="HpOb80Q2MdfgyHuq5dWG-15" value="- posicion: array[600][800] Posicion;" style="text;strokeColor=none;fillColor=none;align=left;verticalAlign=top;spacingLeft=4;spacingRight=4;overflow=hidden;rotatable=0;points=[[0,0.5],[1,0.5]];portConstraint=eastwest;whiteSpace=wrap;html=1;" vertex="1" parent="HpOb80Q2MdfgyHuq5dWG-14">
          <mxGeometry y="26" width="210" height="26" as="geometry" />
        </mxCell>
        <mxCell id="HpOb80Q2MdfgyHuq5dWG-16" value="" style="line;strokeWidth=1;fillColor=none;align=left;verticalAlign=middle;spacingTop=-1;spacingLeft=3;spacingRight=3;rotatable=0;labelPosition=right;points=[];portConstraint=eastwest;strokeColor=inherit;" vertex="1" parent="HpOb80Q2MdfgyHuq5dWG-14">
          <mxGeometry y="52" width="210" height="8" as="geometry" />
        </mxCell>
        <mxCell id="HpOb80Q2MdfgyHuq5dWG-17" value="+ method(type): type" style="text;strokeColor=none;fillColor=none;align=left;verticalAlign=top;spacingLeft=4;spacingRight=4;overflow=hidden;rotatable=0;points=[[0,0.5],[1,0.5]];portConstraint=eastwest;whiteSpace=wrap;html=1;" vertex="1" parent="HpOb80Q2MdfgyHuq5dWG-14">
          <mxGeometry y="60" width="210" as="geometry" />
        </mxCell>
        <mxCell id="HpOb80Q2MdfgyHuq5dWG-18" value="Posicion" style="swimlane;fontStyle=1;align=center;verticalAlign=top;childLayout=stackLayout;horizontal=1;startSize=26;horizontalStack=0;resizeParent=1;resizeParentMax=0;resizeLast=0;collapsible=1;marginBottom=0;whiteSpace=wrap;html=1;" vertex="1" parent="1">
          <mxGeometry x="-1452" y="515" width="160" height="150" as="geometry" />
        </mxCell>
        <mxCell id="HpOb80Q2MdfgyHuq5dWG-19" value="- posX: int;&lt;br&gt;- posY: int;" style="text;strokeColor=none;fillColor=none;align=left;verticalAlign=top;spacingLeft=4;spacingRight=4;overflow=hidden;rotatable=0;points=[[0,0.5],[1,0.5]];portConstraint=eastwest;whiteSpace=wrap;html=1;" vertex="1" parent="HpOb80Q2MdfgyHuq5dWG-18">
          <mxGeometry y="26" width="160" height="34" as="geometry" />
        </mxCell>
        <mxCell id="HpOb80Q2MdfgyHuq5dWG-20" value="" style="line;strokeWidth=1;fillColor=none;align=left;verticalAlign=middle;spacingTop=-1;spacingLeft=3;spacingRight=3;rotatable=0;labelPosition=right;points=[];portConstraint=eastwest;strokeColor=inherit;" vertex="1" parent="HpOb80Q2MdfgyHuq5dWG-18">
          <mxGeometry y="60" width="160" height="8" as="geometry" />
        </mxCell>
        <mxCell id="HpOb80Q2MdfgyHuq5dWG-21" value="+ setPosX(int);&lt;br&gt;+ setPosY(int);&lt;br&gt;+ getPosX(): int;&lt;br&gt;+ getPosY(): int;" style="text;strokeColor=none;fillColor=none;align=left;verticalAlign=top;spacingLeft=4;spacingRight=4;overflow=hidden;rotatable=0;points=[[0,0.5],[1,0.5]];portConstraint=eastwest;whiteSpace=wrap;html=1;" vertex="1" parent="HpOb80Q2MdfgyHuq5dWG-18">
          <mxGeometry y="68" width="160" height="82" as="geometry" />
        </mxCell>
        <mxCell id="HpOb80Q2MdfgyHuq5dWG-22" value="" style="endArrow=open;html=1;endSize=12;startArrow=diamondThin;startSize=14;startFill=1;edgeStyle=orthogonalEdgeStyle;align=left;verticalAlign=bottom;rounded=0;exitX=1;exitY=0.5;exitDx=0;exitDy=0;entryX=0.75;entryY=0;entryDx=0;entryDy=0;" edge="1" parent="1" source="HpOb80Q2MdfgyHuq5dWG-14" target="HpOb80Q2MdfgyHuq5dWG-18">
          <mxGeometry x="-0.8452" relative="1" as="geometry">
            <mxPoint x="-1460.96" y="345.99199999999996" as="sourcePoint" />
            <mxPoint x="-1492" y="505" as="targetPoint" />
            <mxPoint as="offset" />
          </mxGeometry>
        </mxCell>
        <mxCell id="HpOb80Q2MdfgyHuq5dWG-23" value="" style="endArrow=open;html=1;endSize=12;startArrow=diamondThin;startSize=14;startFill=0;edgeStyle=orthogonalEdgeStyle;align=left;verticalAlign=bottom;rounded=0;entryX=0.5;entryY=0;entryDx=0;entryDy=0;exitX=0;exitY=0.5;exitDx=0;exitDy=0;" edge="1" parent="1" source="HpOb80Q2MdfgyHuq5dWG-14" target="HpOb80Q2MdfgyHuq5dWG-1">
          <mxGeometry x="-0.6045" relative="1" as="geometry">
            <mxPoint x="-2037" y="195" as="sourcePoint" />
            <mxPoint x="-1877" y="335" as="targetPoint" />
            <mxPoint as="offset" />
          </mxGeometry>
        </mxCell>
        <mxCell id="HpOb80Q2MdfgyHuq5dWG-24" value="" style="endArrow=open;html=1;endSize=12;startArrow=diamondThin;startSize=14;startFill=0;edgeStyle=orthogonalEdgeStyle;align=left;verticalAlign=bottom;rounded=0;entryX=0.5;entryY=0;entryDx=0;entryDy=0;exitX=0.5;exitY=1;exitDx=0;exitDy=0;" edge="1" parent="1" source="HpOb80Q2MdfgyHuq5dWG-14" target="HpOb80Q2MdfgyHuq5dWG-27">
          <mxGeometry x="-0.6495" y="10" relative="1" as="geometry">
            <mxPoint x="-1537" y="175" as="sourcePoint" />
            <mxPoint x="-1652" y="385" as="targetPoint" />
            <mxPoint as="offset" />
          </mxGeometry>
        </mxCell>
        <mxCell id="HpOb80Q2MdfgyHuq5dWG-25" value="" style="endArrow=open;html=1;endSize=12;startArrow=diamondThin;startSize=14;startFill=1;align=left;verticalAlign=bottom;rounded=0;exitX=0;exitY=0.5;exitDx=0;exitDy=0;entryX=0.5;entryY=0;entryDx=0;entryDy=0;edgeStyle=orthogonalEdgeStyle;" edge="1" parent="1" source="HpOb80Q2MdfgyHuq5dWG-10" target="HpOb80Q2MdfgyHuq5dWG-5">
          <mxGeometry x="1" y="13" relative="1" as="geometry">
            <mxPoint x="-2097.05" y="459.96000000000004" as="sourcePoint" />
            <mxPoint x="-2137" y="615" as="targetPoint" />
            <mxPoint x="8" y="3" as="offset" />
          </mxGeometry>
        </mxCell>
        <mxCell id="HpOb80Q2MdfgyHuq5dWG-26" value="" style="endArrow=open;html=1;endSize=12;startArrow=diamondThin;startSize=14;startFill=1;edgeStyle=orthogonalEdgeStyle;align=left;verticalAlign=bottom;rounded=0;entryX=1;entryY=0.5;entryDx=0;entryDy=0;" edge="1" parent="1" source="HpOb80Q2MdfgyHuq5dWG-27" target="HpOb80Q2MdfgyHuq5dWG-1">
          <mxGeometry x="-0.0979" relative="1" as="geometry">
            <mxPoint x="-1647" y="315" as="sourcePoint" />
            <mxPoint x="-1697" y="355" as="targetPoint" />
            <mxPoint as="offset" />
          </mxGeometry>
        </mxCell>
        <mxCell id="HpOb80Q2MdfgyHuq5dWG-27" value="Escuadron" style="swimlane;fontStyle=1;align=center;verticalAlign=top;childLayout=stackLayout;horizontal=1;startSize=26;horizontalStack=0;resizeParent=1;resizeParentMax=0;resizeLast=0;collapsible=1;marginBottom=0;whiteSpace=wrap;html=1;" vertex="1" parent="1">
          <mxGeometry x="-1612" y="271" width="160" height="78" as="geometry" />
        </mxCell>
        <mxCell id="HpOb80Q2MdfgyHuq5dWG-28" value="- direccion: Direccion;&lt;br&gt;- tanque: array[] Tanque;" style="text;strokeColor=none;fillColor=none;align=left;verticalAlign=top;spacingLeft=4;spacingRight=4;overflow=hidden;rotatable=0;points=[[0,0.5],[1,0.5]];portConstraint=eastwest;whiteSpace=wrap;html=1;" vertex="1" parent="HpOb80Q2MdfgyHuq5dWG-27">
          <mxGeometry y="26" width="160" height="44" as="geometry" />
        </mxCell>
        <mxCell id="HpOb80Q2MdfgyHuq5dWG-29" value="" style="line;strokeWidth=1;fillColor=none;align=left;verticalAlign=middle;spacingTop=-1;spacingLeft=3;spacingRight=3;rotatable=0;labelPosition=right;points=[];portConstraint=eastwest;strokeColor=inherit;" vertex="1" parent="HpOb80Q2MdfgyHuq5dWG-27">
          <mxGeometry y="70" width="160" height="8" as="geometry" />
        </mxCell>
        <mxCell id="HpOb80Q2MdfgyHuq5dWG-30" value="Direccion" style="swimlane;fontStyle=1;align=center;verticalAlign=top;childLayout=stackLayout;horizontal=1;startSize=26;horizontalStack=0;resizeParent=1;resizeParentMax=0;resizeLast=0;collapsible=1;marginBottom=0;whiteSpace=wrap;html=1;" vertex="1" parent="1">
          <mxGeometry x="-1807" y="635" width="160" height="100" as="geometry" />
        </mxCell>
        <mxCell id="HpOb80Q2MdfgyHuq5dWG-31" value="- angulo: int;" style="text;strokeColor=none;fillColor=none;align=left;verticalAlign=top;spacingLeft=4;spacingRight=4;overflow=hidden;rotatable=0;points=[[0,0.5],[1,0.5]];portConstraint=eastwest;whiteSpace=wrap;html=1;" vertex="1" parent="HpOb80Q2MdfgyHuq5dWG-30">
          <mxGeometry y="26" width="160" height="26" as="geometry" />
        </mxCell>
        <mxCell id="HpOb80Q2MdfgyHuq5dWG-32" value="" style="line;strokeWidth=1;fillColor=none;align=left;verticalAlign=middle;spacingTop=-1;spacingLeft=3;spacingRight=3;rotatable=0;labelPosition=right;points=[];portConstraint=eastwest;strokeColor=inherit;" vertex="1" parent="HpOb80Q2MdfgyHuq5dWG-30">
          <mxGeometry y="52" width="160" height="8" as="geometry" />
        </mxCell>
        <mxCell id="HpOb80Q2MdfgyHuq5dWG-33" value="+ setAngulo(int);&lt;br&gt;+ getAngulo(): int;" style="text;strokeColor=none;fillColor=none;align=left;verticalAlign=top;spacingLeft=4;spacingRight=4;overflow=hidden;rotatable=0;points=[[0,0.5],[1,0.5]];portConstraint=eastwest;whiteSpace=wrap;html=1;" vertex="1" parent="HpOb80Q2MdfgyHuq5dWG-30">
          <mxGeometry y="60" width="160" height="40" as="geometry" />
        </mxCell>
        <mxCell id="HpOb80Q2MdfgyHuq5dWG-34" value="" style="endArrow=open;html=1;endSize=12;startArrow=diamondThin;startSize=14;startFill=0;edgeStyle=orthogonalEdgeStyle;align=left;verticalAlign=bottom;rounded=0;exitX=1;exitY=0.5;exitDx=0;exitDy=0;entryX=0.5;entryY=0;entryDx=0;entryDy=0;" edge="1" parent="1" source="HpOb80Q2MdfgyHuq5dWG-10" target="HpOb80Q2MdfgyHuq5dWG-30">
          <mxGeometry x="0.4831" y="-1" relative="1" as="geometry">
            <mxPoint x="-1717" y="425" as="sourcePoint" />
            <mxPoint x="-1557" y="425" as="targetPoint" />
            <mxPoint as="offset" />
          </mxGeometry>
        </mxCell>
        <mxCell id="HpOb80Q2MdfgyHuq5dWG-35" value="" style="endArrow=open;html=1;endSize=12;startArrow=diamondThin;startSize=14;startFill=1;edgeStyle=orthogonalEdgeStyle;align=left;verticalAlign=bottom;rounded=0;entryX=0.25;entryY=0;entryDx=0;entryDy=0;exitX=0.5;exitY=1;exitDx=0;exitDy=0;" edge="1" parent="1" source="HpOb80Q2MdfgyHuq5dWG-1" target="HpOb80Q2MdfgyHuq5dWG-18">
          <mxGeometry x="-1" y="14" relative="1" as="geometry">
            <mxPoint x="-1797" y="415" as="sourcePoint" />
            <mxPoint x="-1687" y="415" as="targetPoint" />
            <mxPoint x="-4" y="-10" as="offset" />
          </mxGeometry>
        </mxCell>
        <mxCell id="HpOb80Q2MdfgyHuq5dWG-36" value="Posicion" style="text;html=1;align=center;verticalAlign=middle;resizable=0;points=[];autosize=1;strokeColor=none;fillColor=none;rotation=0;" vertex="1" parent="1">
          <mxGeometry x="-1407" y="65" width="70" height="30" as="geometry" />
        </mxCell>
        <mxCell id="HpOb80Q2MdfgyHuq5dWG-37" value="Tanque" style="text;html=1;align=center;verticalAlign=middle;resizable=0;points=[];autosize=1;strokeColor=none;fillColor=none;" vertex="1" parent="1">
          <mxGeometry x="-1747" y="65" width="60" height="30" as="geometry" />
        </mxCell>
        <mxCell id="HpOb80Q2MdfgyHuq5dWG-38" value="Escuadron" style="text;html=1;align=center;verticalAlign=middle;resizable=0;points=[];autosize=1;strokeColor=none;fillColor=none;rotation=270;" vertex="1" parent="1">
          <mxGeometry x="-1587" y="175" width="80" height="30" as="geometry" />
        </mxCell>
        <mxCell id="HpOb80Q2MdfgyHuq5dWG-39" value="Posicion" style="text;html=1;align=center;verticalAlign=middle;resizable=0;points=[];autosize=1;strokeColor=none;fillColor=none;" vertex="1" parent="1">
          <mxGeometry x="-1727" y="425" width="70" height="30" as="geometry" />
        </mxCell>
        <mxCell id="HpOb80Q2MdfgyHuq5dWG-40" value="Direccion" style="text;html=1;align=center;verticalAlign=middle;resizable=0;points=[];autosize=1;strokeColor=none;fillColor=none;" vertex="1" parent="1">
          <mxGeometry x="-1867" y="505" width="70" height="30" as="geometry" />
        </mxCell>
        <mxCell id="HpOb80Q2MdfgyHuq5dWG-41" value="Torreta" style="text;html=1;align=center;verticalAlign=middle;resizable=1;points=[];autosize=1;strokeColor=none;fillColor=none;movable=1;rotatable=1;deletable=1;editable=1;locked=0;connectable=1;" vertex="1" parent="1">
          <mxGeometry x="-1982" y="275" width="60" height="30" as="geometry" />
        </mxCell>
        <mxCell id="HpOb80Q2MdfgyHuq5dWG-42" value="Radar" style="text;html=1;align=center;verticalAlign=middle;resizable=0;points=[];autosize=1;strokeColor=none;fillColor=none;" vertex="1" parent="1">
          <mxGeometry x="-2177" y="505" width="60" height="30" as="geometry" />
        </mxCell>
        <mxCell id="HpOb80Q2MdfgyHuq5dWG-43" value="Tanque" style="text;html=1;align=center;verticalAlign=middle;resizable=0;points=[];autosize=1;strokeColor=none;fillColor=none;" vertex="1" parent="1">
          <mxGeometry x="-1687" y="275" width="60" height="30" as="geometry" />
        </mxCell>
        <mxCell id="HpOb80Q2MdfgyHuq5dWG-44" value="0..800" style="text;html=1;align=center;verticalAlign=middle;resizable=0;points=[];autosize=1;strokeColor=none;fillColor=none;rotation=0;" vertex="1" parent="1">
          <mxGeometry x="-1387" y="475" width="60" height="30" as="geometry" />
        </mxCell>
        <mxCell id="HpOb80Q2MdfgyHuq5dWG-45" value="1" style="text;html=1;align=center;verticalAlign=middle;resizable=0;points=[];autosize=1;strokeColor=none;fillColor=none;" vertex="1" parent="1">
          <mxGeometry x="-1757" y="595" width="30" height="30" as="geometry" />
        </mxCell>
        <mxCell id="HpOb80Q2MdfgyHuq5dWG-46" value="1" style="text;html=1;align=center;verticalAlign=middle;resizable=0;points=[];autosize=1;strokeColor=none;fillColor=none;" vertex="1" parent="1">
          <mxGeometry x="-1437" y="475" width="30" height="30" as="geometry" />
        </mxCell>
        <mxCell id="HpOb80Q2MdfgyHuq5dWG-47" value="1" style="text;html=1;align=center;verticalAlign=middle;resizable=0;points=[];autosize=1;strokeColor=none;fillColor=none;" vertex="1" parent="1">
          <mxGeometry x="-1562" y="235" width="30" height="30" as="geometry" />
        </mxCell>
        <mxCell id="HpOb80Q2MdfgyHuq5dWG-48" value="1" style="text;html=1;align=center;verticalAlign=middle;resizable=0;points=[];autosize=1;strokeColor=none;fillColor=none;" vertex="1" parent="1">
          <mxGeometry x="-1837" y="185" width="30" height="30" as="geometry" />
        </mxCell>
        <mxCell id="HpOb80Q2MdfgyHuq5dWG-49" value="1" style="text;html=1;align=center;verticalAlign=middle;resizable=0;points=[];autosize=1;strokeColor=none;fillColor=none;" vertex="1" parent="1">
          <mxGeometry x="-2047" y="445" width="30" height="30" as="geometry" />
        </mxCell>
        <mxCell id="HpOb80Q2MdfgyHuq5dWG-50" value="1" style="text;html=1;align=center;verticalAlign=middle;resizable=0;points=[];autosize=1;strokeColor=none;fillColor=none;" vertex="1" parent="1">
          <mxGeometry x="-2197" y="585" width="30" height="30" as="geometry" />
        </mxCell>
        <mxCell id="HpOb80Q2MdfgyHuq5dWG-51" value="0..N" style="text;html=1;align=center;verticalAlign=middle;resizable=0;points=[];autosize=1;strokeColor=none;fillColor=none;" vertex="1" parent="1">
          <mxGeometry x="-1727" y="275" width="50" height="30" as="geometry" />
        </mxCell>
        <mxCell id="HpOb80Q2MdfgyHuq5dWG-52" value="" style="endArrow=open;html=1;endSize=12;startArrow=diamondThin;startSize=14;startFill=1;edgeStyle=orthogonalEdgeStyle;align=left;verticalAlign=bottom;rounded=0;exitX=0.5;exitY=1;exitDx=0;exitDy=0;entryX=0.75;entryY=0;entryDx=0;entryDy=0;" edge="1" parent="1" source="HpOb80Q2MdfgyHuq5dWG-27" target="HpOb80Q2MdfgyHuq5dWG-30">
          <mxGeometry x="-0.8074" y="45" relative="1" as="geometry">
            <mxPoint x="-1797" y="405" as="sourcePoint" />
            <mxPoint x="-1637" y="405" as="targetPoint" />
            <mxPoint as="offset" />
          </mxGeometry>
        </mxCell>
        <mxCell id="HpOb80Q2MdfgyHuq5dWG-53" value="Direccion" style="text;html=1;align=center;verticalAlign=middle;resizable=0;points=[];autosize=1;strokeColor=none;fillColor=none;" vertex="1" parent="1">
          <mxGeometry x="-1627" y="465" width="70" height="30" as="geometry" />
        </mxCell>
        <mxCell id="HpOb80Q2MdfgyHuq5dWG-54" value="1" style="text;html=1;align=center;verticalAlign=middle;resizable=0;points=[];autosize=1;strokeColor=none;fillColor=none;" vertex="1" parent="1">
          <mxGeometry x="-1717" y="595" width="30" height="30" as="geometry" />
        </mxCell>
      </root>
    </mxGraphModel>
  </diagram>
</mxfile>
